<?xml version="1.0" standalone="no"?>
<!DOCTYPE svg PUBLIC "-//W3C//DTD SVG 1.1//EN" "http://www.w3.org/Graphics/SVG/1.1/DTD/svg11.dtd" >
<svg xmlns="http://www.w3.org/2000/svg">
<metadata></metadata>
<defs>
<font id="flexoregular" horiz-adv-x="1388" >
<font-face units-per-em="2048" ascent="1618" descent="-430" />
<missing-glyph horiz-adv-x="583" />
<glyph unicode="&#xfb01;" horiz-adv-x="1188" d="M55 976v118h194v118q0 157 79.5 238.5t236.5 81.5q47 0 93 -8l-12 -110h-51q-197 0 -197 -196v-124h637v-1094h-150v976h-487v-976h-149v976h-194zM870 1422q0 61 19.5 85.5t70.5 24.5t70.5 -24.5t19.5 -85.5t-19 -84.5t-71 -23.5t-71 23.5t-19 84.5z" />
<glyph unicode="&#xfb02;" horiz-adv-x="1194" d="M55 976v118h194v118q0 157 79.5 238.5t236.5 81.5q203 0 461 -15v-1223q0 -166 87 -277l-126 -66q-110 125 -110 332v1131h-282q-197 0 -197 -196v-124h246v-118h-246v-976h-149v976h-194z" />
<glyph unicode="&#xfb03;" horiz-adv-x="1843" d="M55 976v118h194v118q0 157 79.5 238.5t236.5 81.5q47 0 93 -8l-12 -110h-51q-197 0 -197 -196v-124h505v118q0 157 79.5 238.5t236.5 81.5q47 0 93 -8l-11 -110h-52q-196 0 -196 -196v-124h636v-1094h-149v976h-487v-976h-150v976h-505v-976h-149v976h-194zM1524 1422 q0 61 19.5 85.5t70.5 24.5t71 -24.5t20 -85.5t-19 -84.5t-72 -23.5q-52 0 -71 23.5t-19 84.5z" />
<glyph unicode="&#xfb04;" horiz-adv-x="1848" d="M55 976v118h194v118q0 157 79.5 238.5t236.5 81.5q47 0 93 -8l-12 -110h-51q-197 0 -197 -196v-124h505v118q0 157 79.5 238.5t236.5 81.5q203 0 461 -15v-1223q0 -165 88 -277l-126 -66q-111 126 -111 332v1131h-282q-196 0 -196 -196v-124h245v-118h-245v-976h-150v976 h-505v-976h-149v976h-194z" />
<glyph horiz-adv-x="2048" />
<glyph horiz-adv-x="2048" />
<glyph unicode="&#xd;" horiz-adv-x="2048" />
<glyph unicode=" "  horiz-adv-x="583" />
<glyph unicode="&#x09;" horiz-adv-x="583" />
<glyph unicode="&#xa0;" horiz-adv-x="583" />
<glyph unicode="!" horiz-adv-x="489" d="M154 1432h181l-25 -1015h-130zM155 93q0 61 19.5 85.5t70.5 24.5q52 0 71 -24.5t19 -85.5t-18.5 -84.5t-71.5 -23.5q-52 0 -71 23.5t-19 84.5z" />
<glyph unicode="&#x22;" horiz-adv-x="704" d="M134 1517h152l-16 -551h-119zM419 1517h151l-16 -551h-118z" />
<glyph unicode="#" horiz-adv-x="1157" d="M87 431v118h218l46 336h-210v118h227q5 42 29.5 215.5t29.5 213.5h122l-59 -429h274q6 49 31.5 230.5t27.5 198.5h123l-60 -429h184v-118h-201l-45 -336h189v-118h-206l-60 -431h-122l60 431h-275l-59 -431h-122l59 431h-201zM428 549h274l46 336h-275z" />
<glyph unicode="$" horiz-adv-x="1020" d="M79 1034q0 180 94 265.5t283 100.5v193h118v-190q166 -3 330 -31l-14 -123q-155 24 -276 24q-67 0 -117.5 -4t-103 -17.5t-86 -36t-54.5 -62t-21 -93.5q0 -46 6 -79t24.5 -60t38.5 -44.5t62 -36t81 -31t108 -32.5q92 -26 156.5 -56t119 -76t82 -113t27.5 -156 q0 -182 -94 -274t-282 -111v-196h-118v190q-191 0 -354 33l15 125q168 -26 335 -26q80 0 137.5 10.5t105.5 37.5t72.5 78t24.5 126q0 51 -15 90t-37.5 65.5t-66 49.5t-83.5 37.5t-106 34.5q-69 21 -115 37.5t-95 40.5t-79 51t-55.5 64t-36.5 85.5t-11 109.5z" />
<glyph unicode="%" horiz-adv-x="1683" d="M101 1018q0 113 12 186.5t44.5 129t92 80.5t151.5 25t151.5 -25t92.5 -80.5t45 -129t12 -186.5t-12 -186.5t-45 -129.5t-92.5 -81t-151.5 -25t-151.5 25t-92 81t-44.5 129.5t-12 186.5zM213 1018q0 -39 0.5 -63.5t2.5 -57t5.5 -52.5t10 -45t16 -39.5t23.5 -30t32.5 -24 t43 -13.5t54.5 -5q45 0 77.5 10t53 33t33 47.5t18 67.5t7 78.5t1.5 93.5t-1.5 93.5t-7 78.5t-18 67.5t-33 47.5t-53 33t-77.5 10q-30 0 -54.5 -5t-43 -13.5t-32.5 -24t-23.5 -30t-16 -39.5t-10 -45t-5.5 -52.5t-2.5 -57t-0.5 -63.5zM355 -29l841 1490h123l-841 -1490h-123z M975 414q0 113 12 186.5t44 129.5t91.5 81t151.5 25q93 0 152.5 -25t92 -81t44.5 -129.5t12 -186.5t-12 -186.5t-44.5 -129t-92 -80.5t-152.5 -25q-92 0 -151.5 25t-91.5 81t-44 129t-12 186zM1086 414q0 -59 1.5 -93.5t7 -78t17.5 -68t32.5 -47.5t53 -33t76.5 -10 q45 0 77.5 10t53 33t33 47.5t18 67.5t7 78.5t1.5 93.5t-1.5 93.5t-7 78.5t-18 68t-33 48t-53 33t-77.5 10q-38 0 -67.5 -8.5t-49 -22t-33.5 -39t-21 -48.5t-11 -62.5t-5 -70t-1 -80.5z" />
<glyph unicode="&#x26;" horiz-adv-x="1359" d="M97 385q0 75 24.5 136.5t71 109.5t100.5 83.5t127 70.5q-38 45 -59.5 73t-49.5 74t-41.5 93.5t-13.5 98.5q0 168 99 245t263 77q71 0 131 -16.5t109.5 -51t78 -94.5t28.5 -140q0 -60 -19 -112.5t-48.5 -91t-76 -74t-91 -60t-104.5 -51.5l352 -407q83 131 98 327l142 -6 q-27 -266 -143 -434l206 -235h-187l-112 131q-152 -146 -425 -146q-233 0 -346.5 99t-113.5 301zM251 366q0 -58 20 -104t52 -74.5t76 -47t89 -26t94 -7.5q183 0 310 129l-392 455q-61 -33 -99 -59.5t-76 -65.5t-56 -88.5t-18 -111.5zM401 1118q0 -40 12 -78t39 -77 t43 -58.5t51 -59.5q51 26 82 42.5t72.5 44.5t64.5 54t39.5 61.5t16.5 75.5q0 110 -55 156.5t-155 46.5q-94 0 -152 -50t-58 -158z" />
<glyph unicode="'" horiz-adv-x="419" d="M134 1517h151l-16 -551h-118z" />
<glyph unicode="(" horiz-adv-x="610" d="M118 570q0 624 319 923l89 -74q-255 -253 -255 -849q0 -597 255 -850l-89 -73q-319 299 -319 923z" />
<glyph unicode=")" horiz-adv-x="610" d="M85 -280q255 253 255 850q0 596 -255 849l88 74q320 -301 320 -923t-320 -923z" />
<glyph unicode="*" horiz-adv-x="957" d="M80 1030v109h303l-151 261l99 56l148 -258l150 258l97 -56l-151 -261h302v-109h-303l152 -263l-97 -54l-150 256l-148 -257l-99 56l152 262h-304z" />
<glyph unicode="+" horiz-adv-x="1193" d="M100 533v139h425v427h142v-427h428v-139h-428v-429h-142v429h-425z" />
<glyph unicode="," horiz-adv-x="462" d="M57 -269l137 514h175l-183 -514h-129z" />
<glyph unicode="-" horiz-adv-x="818" d="M146 479v130h526v-130h-526z" />
<glyph unicode="." horiz-adv-x="450" d="M135 93q0 61 19.5 85.5t70.5 24.5t70.5 -24.5t19.5 -85.5t-19 -84.5t-71 -23.5t-71 23.5t-19 84.5z" />
<glyph unicode="/" horiz-adv-x="854" d="M59 -165l581 1647h141l-581 -1647h-141z" />
<glyph unicode="0" horiz-adv-x="1277" d="M142 694q0 151 12 257.5t43.5 196.5t87.5 143.5t143 82.5t210 29q88 0 157.5 -14.5t122 -42t90 -73t62.5 -100.5t39.5 -131t20.5 -158.5t6 -189.5t-6 -189.5t-20.5 -158.5t-39.5 -131t-62.5 -100.5t-90 -73t-122 -42t-157.5 -14.5q-123 0 -210 29t-143 82.5t-87.5 143.5 t-43.5 196.5t-12 257.5zM296 694q0 -60 0.5 -100t3 -92t8 -85.5t14 -74.5t22 -67.5t32 -55t43.5 -45.5t57 -32t72.5 -21.5t89.5 -6.5q54 0 98.5 9t78 24t59 41.5t43.5 53.5t30 69.5t19 79t10.5 92.5t4.5 100t1 111t-1 111.5t-4.5 100.5t-10.5 92.5t-19 79t-30 69.5 t-43.5 53.5t-59 41.5t-78 24t-98.5 9q-69 0 -122.5 -15t-89.5 -38.5t-60.5 -68t-38.5 -85t-21 -109.5t-8.5 -123t-1.5 -142z" />
<glyph unicode="1" horiz-adv-x="715" d="M37 1277q201 32 381 112h123v-1389h-152v1225q-169 -49 -345 -75z" />
<glyph unicode="2" horiz-adv-x="1102" d="M87 0q15 84 26.5 140.5t27 117.5t31.5 101.5t39 84t50.5 73.5t64 60.5t81.5 55.5t102 49q78 33 134.5 66.5t104 76.5t71.5 97t24 118q0 131 -87 181t-302 50q-148 0 -331 -29l-15 121q220 40 416 40q109 0 192.5 -16.5t148 -53.5t98.5 -101.5t34 -154.5 q0 -185 -101.5 -304.5t-300.5 -201.5q-90 -37 -149 -78.5t-94.5 -96.5t-53 -113.5t-30.5 -147.5h729v-135h-910z" />
<glyph unicode="3" horiz-adv-x="1105" d="M73 23l17 125q215 -29 327 -29q107 0 179.5 12.5t125.5 43t77 85t24 136.5q0 112 -63.5 177.5t-172.5 77.5q-97 10 -231 10q-9 0 -28 -0.5t-29 -0.5v119q148 3 288 23q104 15 159.5 79t55.5 159q0 53 -11 92t-35.5 64t-53 41t-73.5 23.5t-85.5 10t-101.5 2.5 q-136 0 -339 -29l-16 122q202 37 383 37q83 0 149.5 -7.5t132 -29t109.5 -57t71 -95.5t27 -141q0 -255 -219 -342q102 -30 172.5 -112.5t70.5 -212.5q0 -119 -35.5 -202t-106 -130.5t-163 -68t-218.5 -20.5q-190 0 -387 38z" />
<glyph unicode="4" horiz-adv-x="1213" d="M63 434q0 58 76 155l558 720q74 94 151 94q39 0 62.5 -26t23.5 -79v-838h190v-124h-190v-336h-152v336h-593q-70 0 -98 26t-28 72zM212 460h571v743z" />
<glyph unicode="5" horiz-adv-x="1118" d="M101 24l17 125q176 -29 332 -29q113 0 185 13.5t123.5 49.5t73 98.5t21.5 160.5q0 58 -15.5 102t-47.5 73t-70.5 48t-95.5 28.5t-111.5 13t-128.5 3.5q-149 0 -253 -6l47 685h795v-135h-660l-30 -422q77 5 147 5q79 0 139.5 -4t123.5 -14.5t109 -29.5t87.5 -50t67 -74 t40.5 -103.5t15 -137.5q0 -232 -126.5 -335.5t-379.5 -103.5q-210 0 -405 39z" />
<glyph unicode="6" horiz-adv-x="1236" d="M133 555q0 168 13 287.5t47 218.5t89 161t143 104t204 59.5t277 17.5q73 0 115 -1l13 -126q-26 -1 -80 -2q-220 -6 -320 -28q-212 -46 -287 -204q-42 -89 -47 -217q220 28 351 28q119 0 203 -18.5t150 -65t98 -131t32 -210.5q0 -105 -24.5 -182.5t-67 -127t-108.5 -79.5 t-142 -42t-174 -12q-97 0 -173 17.5t-128.5 53t-89 83t-57 114t-29 138.5t-8.5 164zM286 525q0 -58 4.5 -103.5t16 -95t34.5 -85.5t58 -66t89 -45.5t124 -15.5q206 0 287.5 71.5t81.5 245.5q0 92 -22.5 151.5t-73 91.5t-114 43.5t-161.5 11.5q-107 0 -319 -30 q-5 -66 -5 -174z" />
<glyph unicode="7" horiz-adv-x="1035" d="M51 1255v134h819q56 0 85 -21t29 -59q0 -27 -17 -64l-571 -1245h-173l598 1255h-770z" />
<glyph unicode="8" horiz-adv-x="1243" d="M122 372q0 138 62 218.5t179 130.5q-118 54 -168 135.5t-50 209.5q0 172 126 254.5t350 82.5q144 0 248.5 -33.5t167.5 -110.5t63 -193q0 -128 -47.5 -207.5t-173.5 -136.5q116 -48 179 -130t63 -222q0 -92 -26.5 -161t-70.5 -111t-110 -68t-136 -35.5t-157 -9.5 q-113 0 -200 19t-156.5 62.5t-106 120.5t-36.5 185zM273 377q0 -78 26.5 -132t76.5 -82t108.5 -39.5t136.5 -11.5q79 0 137 11t108.5 38.5t77 81.5t26.5 134q0 141 -90.5 202t-290.5 76q-153 -19 -234.5 -81.5t-81.5 -196.5zM292 1038q0 -123 89.5 -184.5t272.5 -72.5 q69 11 119 28t93 45.5t65.5 74.5t22.5 109q0 72 -26 121.5t-75 74.5t-104 35t-128 10q-57 0 -102 -5.5t-89 -21.5t-73 -42t-47 -69.5t-18 -102.5z" />
<glyph unicode="9" horiz-adv-x="1233" d="M96 961q0 104 24.5 182t67 127t109 79.5t142 42t174.5 11.5q116 0 201.5 -26.5t139.5 -72.5t86 -119.5t44.5 -156.5t12.5 -194q0 -168 -13 -288t-47 -219t-89 -160.5t-143 -104t-204 -60t-277 -17.5q-31 0 -115 2l-13 126q26 1 80 2q221 6 320 28q212 46 287 204 q42 89 47 217q-222 -28 -351 -28q-119 0 -203 18.5t-150 65t-98 131t-32 210.5zM249 958q0 -92 22.5 -151.5t73 -91.5t114 -43.5t161.5 -11.5q108 0 320 30q4 53 4 173q0 49 -3 88.5t-11.5 83.5t-23 77.5t-39 65t-58.5 52t-82.5 32.5t-108.5 12q-206 0 -287.5 -71 t-81.5 -245z" />
<glyph unicode=":" horiz-adv-x="492" d="M157 93q0 61 19 85.5t70 24.5t70.5 -24.5t19.5 -85.5t-19 -84.5t-71 -23.5t-70.5 23.5t-18.5 84.5zM157 867q0 61 19 85t70 24t70.5 -24t19.5 -85t-19 -84.5t-71 -23.5t-70.5 23.5t-18.5 84.5z" />
<glyph unicode=";" horiz-adv-x="520" d="M80 -269l137 514h176l-184 -514h-129zM218 867q0 61 19 85t70 24t71 -24t20 -85t-19 -84.5t-72 -23.5q-52 0 -70.5 23.5t-18.5 84.5z" />
<glyph unicode="&#x3c;" horiz-adv-x="1222" d="M93 534v135l980 457v-150l-808 -374l808 -375v-151z" />
<glyph unicode="=" horiz-adv-x="1309" d="M157 323v137h995v-137h-995zM157 743v138h995v-138h-995z" />
<glyph unicode="&#x3e;" horiz-adv-x="1222" d="M149 76v151l809 375l-809 374v150l980 -457v-135z" />
<glyph unicode="?" horiz-adv-x="1029" d="M60 1408q184 38 376 38q83 0 144.5 -5.5t123 -20.5t103 -43.5t74.5 -72.5t49 -110t16 -153q0 -103 -26 -173.5t-68 -105t-92.5 -54t-101.5 -29.5t-93 -22.5t-69 -42t-28 -79.5l-2 -118h-132l-2 124q0 6 -0.5 25.5t-0.5 26.5q0 50 15.5 84.5t42 53t60.5 30t71.5 19 t75 15.5t71.5 24t60.5 40.5t42 69t15.5 105.5q0 114 -33.5 172t-115 82t-240.5 24q-140 0 -309 -30zM310 93q0 61 19.5 85.5t70.5 24.5t70.5 -24.5t19.5 -85.5t-19 -84.5t-71 -23.5t-71 23.5t-19 84.5z" />
<glyph unicode="@" horiz-adv-x="1891" d="M120 547q0 197 55.5 338.5t166.5 227.5t265.5 125.5t362.5 39.5q81 0 146.5 -16.5t118.5 -53t82.5 -102t29.5 -155.5v-452q0 -95 -6 -187q-173 -88 -405 -88q-208 0 -301.5 79t-93.5 244q0 134 69 217t204 110q106 22 386 31q0 141 -51.5 194t-188.5 53 q-168 0 -290.5 -30t-214.5 -98.5t-138 -187t-46 -289.5q0 -168 45 -286t135 -187.5t211 -100t286 -30.5t286.5 30.5t211.5 100t135.5 187.5t45.5 286q0 117 -17 208l143 41q24 -111 24 -249q0 -380 -209 -555t-620 -175q-412 0 -620 174.5t-208 555.5zM689 551 q0 -116 63.5 -161t198.5 -45q123 0 245 50q4 69 4 172v226q-250 -6 -334 -27q-91 -22 -134 -72t-43 -143z" />
<glyph unicode="A" horiz-adv-x="1348" d="M56 0l496 1339q39 107 125 107q89 0 127 -107l489 -1339h-169l-147 412h-612l-147 -412h-162zM410 538h522l-260 727z" />
<glyph unicode="B" horiz-adv-x="1314" d="M173 20v1394q203 32 437 32q64 0 117 -3.5t111.5 -13t104.5 -26t89 -44t71.5 -64t45.5 -89.5t17 -118q0 -279 -212 -356q54 -18 94.5 -45t73.5 -70.5t50.5 -109t17.5 -152.5q0 -76 -19.5 -135.5t-58 -99t-86.5 -67t-113.5 -42t-130.5 -20.5t-145 -6q-249 0 -464 35z M329 133q155 -18 297 -18q81 0 137 5.5t110.5 22t87 46t52 80t19.5 121.5t-21 122t-55.5 81.5t-89.5 48.5t-112 24t-135 6h-290v-539zM330 793h289q76 0 132 6t107 23t83 46.5t50.5 77.5t18.5 115q0 66 -20.5 113.5t-53 75t-87 43t-108.5 20t-131 4.5q-137 0 -280 -18v-506z " />
<glyph unicode="C" horiz-adv-x="1084" d="M133 716q0 132 10.5 231t36 184t68 141.5t106.5 97t151 58.5t203 18q171 0 326 -31l-15 -126q-150 23 -250 23q-73 0 -132 -8t-105 -22t-81.5 -39t-60.5 -52t-42.5 -68.5t-28 -80.5t-16 -96t-7.5 -108t-2 -122q0 -92 3.5 -155.5t15 -131t32 -111t55.5 -84.5t85.5 -64 t121 -36.5t162.5 -13.5q101 0 251 22l14 -124q-156 -33 -326 -33q-116 0 -203.5 18.5t-151.5 59t-106 97t-67.5 141.5t-36 184t-10.5 231z" />
<glyph unicode="D" horiz-adv-x="1372" d="M173 19v1395q202 32 435 32q113 0 201 -15.5t153.5 -43.5t112 -75.5t77 -103.5t48 -135t24 -163t6.5 -194q0 -130 -9.5 -224t-34.5 -181t-69 -144t-113 -100t-167 -62.5t-229 -19.5q-231 0 -435 34zM331 136q141 -19 235 -19q74 0 136 7t109.5 23.5t85 33.5t64.5 49.5 t46 57.5t31 71t19 76.5t10 88.5t3.5 92t0.5 100t-0.5 100t-3.5 91.5t-10 88t-19 77t-31 71t-46 57t-64.5 49.5t-85 34t-109.5 23.5t-136 6.5q-95 0 -235 -17v-1161z" />
<glyph unicode="E" horiz-adv-x="1103" d="M167 312v806q0 50 8.5 91t22.5 71.5t37.5 54.5t47 40t59 27.5t65.5 18t73.5 9.5t76 4t80.5 1q166 0 353 -8v-124h-359q-103 0 -160 -10t-92 -42.5t-45 -82t-10 -139.5v-236h636v-128h-636v-264q0 -90 10 -139t45 -81.5t92 -42.5t160 -10h359v-125q-160 -7 -353 -7 q-54 0 -90 1t-84.5 5.5t-81 13.5t-69.5 24t-60.5 38.5t-44.5 55.5t-30.5 77t-9.5 101z" />
<glyph unicode="F" horiz-adv-x="1072" d="M170 0v1118q0 50 8.5 91t22.5 71.5t37.5 54.5t47 40t59 27.5t65.5 18t73.5 9.5t76 4t80.5 1q218 0 352 -8v-124h-358q-103 0 -160 -10t-92 -42.5t-45 -82t-10 -139.5v-236h636v-128h-636v-665h-157z" />
<glyph unicode="G" horiz-adv-x="1305" d="M136 716q0 161 15.5 274.5t54 204t104.5 143.5t164 80.5t237 27.5q243 0 420 -32l-14 -127q-182 24 -345 24q-73 0 -132 -8t-105 -22t-81.5 -38.5t-60.5 -51.5t-42.5 -68t-28 -80.5t-16 -96t-7.5 -108t-2 -122.5q0 -70 2 -121.5t7.5 -108t16.5 -96t28.5 -80.5t42.5 -68 t60.5 -52t81.5 -39.5t105 -22.5t131 -8q68 0 115 9t72.5 22.5t39 38.5t16.5 47t3 59v328h-260v127h416v-529q0 -47 -12.5 -83t-32 -61t-54.5 -42.5t-69 -27t-87 -15t-97.5 -7t-110.5 -1.5q-172 0 -284 41.5t-176.5 135t-89.5 224.5t-25 330z" />
<glyph unicode="H" horiz-adv-x="1410" d="M176 0v1432h158v-633h744v633h158v-1432h-158v667h-744v-667h-158z" />
<glyph unicode="I" horiz-adv-x="505" d="M174 0v1432h158v-1432h-158z" />
<glyph unicode="J" horiz-adv-x="798" d="M31 18l14 122q79 -23 173 -23q57 0 100 13t79.5 44.5t56 92t19.5 148.5v1017h158v-980q0 -255 -86.5 -361t-312.5 -106q-109 0 -201 33z" />
<glyph unicode="K" horiz-adv-x="1214" d="M173 0v1432h158v-664l622 664h193l-656 -690l673 -742h-203l-629 703v-703h-158z" />
<glyph unicode="L" horiz-adv-x="991" d="M170 312v1120h158v-1031q0 -90 10 -138.5t45 -81.5t92 -43t160 -10h332v-126q-173 -6 -327 -6q-48 0 -80.5 1t-76.5 4t-73.5 9t-65 17.5t-59 27.5t-47 40t-37.5 54.5t-22.5 71.5t-8.5 91z" />
<glyph unicode="M" horiz-adv-x="1741" d="M144 0l82 1336q4 58 28 84t72 26q74 0 118 -99l425 -946l430 944q45 101 119 101q49 0 74 -26.5t28 -83.5l78 -1336h-156l-68 1199l-413 -927q-18 -40 -39 -59t-53 -19q-58 0 -93 78l-412 926l-70 -1198h-150z" />
<glyph unicode="N" horiz-adv-x="1437" d="M176 0v1334q0 57 26 84.5t71 27.5q76 0 139 -102l706 -1136v1224h145v-1334q0 -57 -26 -85t-71 -28q-42 0 -74.5 24.5t-65.5 78.5l-705 1137v-1225h-145z" />
<glyph unicode="O" d="M140 716q0 201 25.5 334t89.5 224.5t170.5 131.5t268.5 40t268.5 -40t170.5 -131.5t89.5 -224.5t25.5 -334t-25.5 -334t-89.5 -225t-170.5 -132t-268.5 -40t-268.5 40t-170.5 132t-89.5 225t-25.5 334zM300 716q0 -90 2 -144.5t10 -125.5t23.5 -113t44 -88t70 -70 t103 -40t141.5 -16t141 16t103 40t70.5 70t44 88t23.5 112.5t10 126t2 144.5q0 62 -1 102.5t-3.5 93.5t-9 88t-16 77t-25 69.5t-37 57t-50.5 47.5t-65.5 33.5t-83.5 22t-103 6.5q-80 0 -141.5 -16t-103 -40t-70 -70t-44 -87.5t-23.5 -112.5t-10 -126t-2 -145z" />
<glyph unicode="P" horiz-adv-x="1247" d="M173 0v1413q200 33 437 33q101 0 176.5 -9t150.5 -36.5t123 -74t77.5 -125t29.5 -186.5q0 -106 -26.5 -184t-71.5 -127t-115.5 -78t-148 -40t-178.5 -11q-119 0 -296 10v-585h-158zM331 717q124 -13 279 -13q101 0 171.5 14t124 48t79 95.5t25.5 153.5q0 163 -89 232.5 t-303 69.5q-149 0 -287 -19v-581z" />
<glyph unicode="Q" d="M140 716q0 202 25.5 334.5t89 224t170 131.5t269.5 40q162 0 268.5 -40t170 -131.5t89.5 -224.5t26 -334q0 -346 -86 -513t-305 -205q45 -72 111 -118.5t180 -100.5l-111 -79q-9 5 -35.5 17.5t-38.5 18.5t-37.5 19t-39.5 22t-37 24t-37.5 28t-33.5 31.5t-32.5 36.5 t-27 41t-24.5 47q-130 0 -224 27t-158 80.5t-102 143t-54 204.5t-16 276zM300 716q0 -90 2 -144.5t10 -125.5t23.5 -113t44 -88t70 -70t103 -40t141.5 -16t141 16t102.5 40t70 70t44.5 88t24 112.5t10 126t2 144.5t-2 144.5t-10 126t-24 113t-44.5 88t-70 69.5t-102.5 40 t-141 16t-141.5 -16t-103 -40t-70 -70t-44 -87.5t-23.5 -112.5t-10 -126t-2 -145z" />
<glyph unicode="R" horiz-adv-x="1285" d="M173 0v1413q198 33 437 33q70 0 127 -4t116 -16t104 -31.5t85.5 -52t66.5 -76t41.5 -105.5t15.5 -139q0 -199 -90.5 -297t-261.5 -125l351 -600h-184l-333 587h-22q-118 0 -296 10v-597h-157zM330 730q125 -13 280 -13q100 0 170 14t123.5 47.5t79.5 94t26 149.5 q0 160 -89 228t-303 68q-147 0 -287 -19v-569z" />
<glyph unicode="S" horiz-adv-x="1072" d="M94 1065q0 208 121.5 294.5t367.5 86.5q180 0 361 -32l-14 -127q-167 25 -285 25q-70 0 -122 -4t-105.5 -18t-88 -37t-56 -63.5t-21.5 -96.5q0 -48 6 -82t25 -62t39.5 -46t64 -37t83 -31.5t111.5 -33.5q75 -21 131 -44t108.5 -57t85.5 -76.5t53 -102t20 -133.5 q0 -215 -127 -309t-381 -94q-194 0 -367 34l16 129q179 -27 345 -27q65 0 115.5 6.5t96 24t75 46t46.5 75t17 108.5q0 52 -15.5 92.5t-39 67.5t-68 51t-85.5 39t-109 36q-72 22 -119 38.5t-98 41t-81.5 52.5t-56.5 66t-37.5 87.5t-11.5 112.5z" />
<glyph unicode="T" horiz-adv-x="1032" d="M45 1301v131h942v-131h-392v-1301h-158v1301h-392z" />
<glyph unicode="U" horiz-adv-x="1368" d="M165 463v969h156v-985q0 -169 84.5 -248t275.5 -79q193 0 276.5 79t83.5 248v985h157v-969q0 -93 -16 -166.5t-48.5 -126t-76 -88.5t-103.5 -57.5t-126 -30.5t-147 -9q-98 0 -174 13t-142 46t-109 86.5t-67 137t-24 195.5z" />
<glyph unicode="V" horiz-adv-x="1281" d="M55 1432h168l418 -1243l424 1243h161l-467 -1339q-19 -57 -47.5 -82.5t-71.5 -25.5q-84 0 -121 108z" />
<glyph unicode="W" horiz-adv-x="1862" d="M86 1432h160l277 -1235l308 966q18 56 44 81t66 25t66.5 -25.5t43.5 -80.5l298 -966l274 1235h153l-308 -1336q-26 -111 -114 -111q-43 0 -71 27t-45 84l-300 967l-309 -967q-18 -57 -46 -84t-70 -27q-88 0 -114 111z" />
<glyph unicode="X" horiz-adv-x="1246" d="M74 0l458 730l-441 702h181l351 -566l350 566h172l-437 -696l464 -736h-183l-373 598l-368 -598h-174z" />
<glyph unicode="Y" horiz-adv-x="1158" d="M41 1432h172l366 -715l374 715h165l-461 -875v-557h-159v557z" />
<glyph unicode="Z" horiz-adv-x="1103" d="M74 63q0 31 29 79l715 1158h-696v132h800q97 0 97 -63q0 -34 -28 -79l-714 -1158h736v-132h-842q-97 0 -97 63z" />
<glyph unicode="[" horiz-adv-x="607" d="M177 -334v1814h358v-120h-217v-1573h216v-121h-357z" />
<glyph unicode="\" horiz-adv-x="854" d="M74 1482h141l581 -1647h-141z" />
<glyph unicode="]" horiz-adv-x="608" d="M73 1360v120h358v-1814h-357v121h215v1573h-216z" />
<glyph unicode="^" horiz-adv-x="1016" d="M94 677l338 755h153l338 -755h-144l-270 597l-271 -597h-144z" />
<glyph unicode="_" horiz-adv-x="1026" d="M-6 -186h1038v-103h-1038v103z" />
<glyph unicode="`" horiz-adv-x="467" d="M37 1464h179l181 -293h-121z" />
<glyph unicode="a" horiz-adv-x="1142" d="M93 312q0 298 276 339q133 20 467 32v49q0 139 -62.5 195.5t-235.5 56.5q-152 0 -365 -31l-14 118q238 38 407 38q75 0 133.5 -8t113.5 -30.5t91 -58.5t57.5 -95.5t21.5 -139.5v-517q0 -97 -6 -187q-177 -88 -457 -88q-223 0 -325 76t-102 251zM241 316q0 -122 67 -165.5 t228 -43.5q172 0 296 49q4 69 4 172v243q-293 -5 -415 -29q-97 -19 -138.5 -67.5t-41.5 -158.5z" />
<glyph unicode="b" horiz-adv-x="1182" d="M160 260v1257h149v-449q157 41 302 41q167 0 265.5 -53.5t146 -176t47.5 -332.5q0 -213 -52 -336t-157 -174.5t-284 -51.5q-243 0 -411 88q-6 90 -6 187zM309 330q0 -103 4 -172q107 -49 264 -49q101 0 168 26.5t105.5 83.5t54 135t15.5 193q0 98 -8 164t-30 122 t-62 87.5t-103 48.5t-154 17q-127 0 -254 -43v-613z" />
<glyph unicode="c" horiz-adv-x="922" d="M127 559q0 114 11.5 195.5t42.5 152t84 113t137 66t201 23.5q128 0 245 -31l-12 -115q-103 19 -183 19q-86 0 -146.5 -9.5t-102.5 -33.5t-67 -54t-38 -82.5t-17 -106t-4 -137.5q0 -69 2.5 -114.5t10.5 -97t24 -83.5t43 -63.5t66.5 -48.5t96 -27.5t130.5 -10.5 q69 0 185 24l14 -121q-155 -32 -287 -32q-108 0 -187 30.5t-126 80t-75.5 126.5t-38 155.5t-9.5 181.5z" />
<glyph unicode="d" horiz-adv-x="1183" d="M108 547q0 310 105.5 436t353.5 126q143 0 302 -41v449h149v-1257q0 -97 -6 -187q-168 -88 -411 -88q-178 0 -283.5 51.5t-157.5 174.5t-52 336zM258 547q0 -115 15.5 -193t54 -135t105.5 -83.5t168 -26.5q157 0 264 49q4 104 4 172v613q-127 43 -255 43q-91 0 -154 -17 t-102.5 -48.5t-61.5 -87.5t-30 -121.5t-8 -164.5z" />
<glyph unicode="e" horiz-adv-x="1188" d="M125 547q0 303 106.5 432.5t371.5 129.5q136 0 229.5 -34t145.5 -101.5t74 -153.5t22 -204q0 -54 -3 -104q-92 -16 -256.5 -31t-281.5 -20l-259 -11q7 -89 25.5 -148t58.5 -104.5t108 -66t170 -20.5q155 0 386 31l14 -120q-243 -37 -458 -37q-105 0 -184.5 28t-130 76 t-82 120.5t-44 154t-12.5 183.5zM270 563l290 14q189 8 361 30q3 33 3 77q0 147 -74.5 225t-246.5 78q-102 0 -168 -25.5t-102 -81.5t-49.5 -130t-13.5 -187z" />
<glyph unicode="f" horiz-adv-x="693" d="M55 976v118h194v118q0 157 79.5 238.5t236.5 81.5q47 0 93 -8l-12 -110h-51q-197 0 -197 -196v-124h246v-118h-246v-976h-149v976h-194z" />
<glyph unicode="g" horiz-adv-x="1189" d="M115 559q0 207 52.5 327.5t158 171.5t282.5 51q243 0 411 -88q7 -105 7 -187v-919q0 -99 -31.5 -166.5t-91.5 -103t-130 -49.5t-165 -14q-171 0 -415 39l13 119q214 -33 373 -33q173 0 235.5 57t62.5 196v91q-159 -41 -302 -41q-166 0 -264.5 51t-147 171.5t-48.5 326.5z M265 559q0 -79 5.5 -136t20 -107.5t40 -82.5t65 -55.5t95.5 -34t131 -10.5q128 0 255 43v588q0 68 -4 172q-109 50 -265 50q-100 0 -167 -26t-105.5 -81.5t-54.5 -132t-16 -187.5z" />
<glyph unicode="h" horiz-adv-x="1190" d="M163 0v1517h149v-453q157 44 318 45q92 0 161 -12t114.5 -37.5t75.5 -57.5t45 -79.5t20.5 -94t5.5 -110.5v-718h-149v687q0 85 -10.5 135t-44 89.5t-96.5 55.5t-167 16q-141 0 -273 -48v-935h-149z" />
<glyph unicode="i" horiz-adv-x="457" d="M139 1422q0 61 19.5 85.5t70.5 24.5t70.5 -24.5t19.5 -85.5t-19 -84.5t-71 -23.5t-71 23.5t-19 84.5zM154 0v1094h150v-1094h-150z" />
<glyph unicode="j" horiz-adv-x="463" d="M-88 -417l12 114q43 3 73 9.5t62.5 23.5t52 43.5t32.5 72.5t13 109v1139h149v-1105q0 -217 -86 -312t-273 -95q-23 0 -35 1zM142 1422q0 61 19.5 85.5t70.5 24.5t70.5 -24.5t19.5 -85.5t-19 -84.5t-71 -23.5t-71 23.5t-19 84.5z" />
<glyph unicode="k" horiz-adv-x="1036" d="M163 0v1517h148v-927l476 504h180l-512 -534l544 -560h-195l-493 516v-516h-148z" />
<glyph unicode="l" horiz-adv-x="459" d="M141 283v1234h149v-1223q0 -165 88 -277l-127 -66q-110 125 -110 332z" />
<glyph unicode="m" horiz-adv-x="1844" d="M160 0v831q0 82 7 187q92 39 215 65t234 26q194 0 284 -88q181 88 401 88q95 0 164.5 -21.5t110 -55.5t64 -88t31 -107.5t7.5 -125.5v-711h-149v685q0 82 -11.5 135t-42 91.5t-84 55t-136.5 16.5q-65 0 -143.5 -18.5t-144.5 -53.5q27 -80 27 -200v-711h-150v685 q0 82 -11.5 135t-41.5 91.5t-83.5 55t-137.5 16.5q-53 0 -130 -15.5t-127 -37.5q-4 -69 -4 -171v-759h-149z" />
<glyph unicode="n" horiz-adv-x="1230" d="M160 0v831q0 112 5 187q209 91 494 91q78 0 140 -11t105 -29t73.5 -47.5t48.5 -60.5t28 -74.5t13 -83t3 -92.5v-711h-149v684q0 56 -4 94t-15.5 74.5t-33 59t-56 40t-84 25t-118.5 7.5q-70 0 -158.5 -15.5t-138.5 -38.5q-5 -87 -5 -171v-759h-148z" />
<glyph unicode="o" horiz-adv-x="1220" d="M130 547q0 308 108 435t372 127q263 0 372 -128.5t109 -433.5q0 -304 -109 -433t-372 -129q-264 0 -372 127t-108 435zM280 547q0 -132 16.5 -215t57 -133t100.5 -69t156 -19t157.5 21t101.5 72.5t56 133.5t16 209q0 249 -71 342.5t-260 93.5q-96 0 -156 -19t-100.5 -69 t-57 -133t-16.5 -215z" />
<glyph unicode="p" horiz-adv-x="1183" d="M161 -403v1237q0 97 6 187q168 88 411 88q179 0 284 -51.5t157 -174.5t52 -336q0 -310 -105.5 -436t-353.5 -126q-144 0 -303 41v-429h-148zM309 152q127 -43 255 -43q91 0 154 17t103 48t62 87t30 122t8 164q0 115 -15.5 193.5t-54 135.5t-105.5 83.5t-168 26.5 q-155 0 -265 -50q-4 -104 -4 -172v-612z" />
<glyph unicode="q" horiz-adv-x="1183" d="M108 547q0 213 52.5 336t158 174.5t283.5 51.5q243 0 411 -88q6 -90 6 -187v-1237h-149v429q-159 -41 -303 -41q-248 0 -353.5 126t-105.5 436zM259 547q0 -82 5.5 -139.5t19.5 -110t39 -85.5t64.5 -57.5t95.5 -35t132 -10.5q128 0 255 43v612q0 68 -4 172 q-109 50 -264 50q-101 0 -168 -26.5t-105.5 -83.5t-54 -135.5t-15.5 -193.5z" />
<glyph unicode="r" horiz-adv-x="718" d="M159 0v834q0 97 6 187q168 88 411 88q62 0 102 -5l-13 -126q-36 4 -89 4q-155 0 -264 -50q-4 -69 -4 -172v-760h-149z" />
<glyph unicode="s" horiz-adv-x="966" d="M106 22l14 117q156 -26 282 -26h45t46.5 1.5t48.5 4.5t45 9t43 14.5t35.5 21.5t30 29.5t17.5 39.5t7 51q0 40 -12 69.5t-29.5 49t-54 36.5t-68.5 28t-90 28q-9 3 -14 4q-140 42 -187 65q-121 60 -148 173q-8 36 -8 79q0 84 27 142t79.5 90.5t118.5 46.5t153 14 q181 0 357 -36l-15 -116q-158 27 -274 27q-35 0 -56.5 -0.5t-56.5 -3.5t-57 -9t-48.5 -17t-42 -27t-26 -41t-10.5 -56q0 -24 3.5 -44t13 -36t18 -28.5t27 -24t30.5 -18.5t38.5 -16t41.5 -14t48 -15t50 -15q75 -23 121.5 -41t93.5 -45t72 -58t41 -76.5t16 -105.5 q0 -88 -31 -149.5t-89.5 -95.5t-131 -48.5t-166.5 -14.5q-176 0 -348 37z" />
<glyph unicode="t" horiz-adv-x="720" d="M53 976v118h200v285l149 24v-309h244v-118h-244v-684q0 -112 40.5 -148t145.5 -36q30 0 60 3l12 -114q-74 -12 -119 -12q-151 0 -219.5 68.5t-68.5 218.5v704h-200z" />
<glyph unicode="u" horiz-adv-x="1226" d="M155 383v711h149v-684q0 -85 10 -135t42.5 -90.5t94.5 -57t164 -16.5q70 0 157.5 15t136.5 38q4 69 4 171v759h149v-830q0 -97 -6 -187q-211 -92 -491 -92q-108 0 -185 21t-120 54t-67.5 88t-31 107t-6.5 128z" />
<glyph unicode="v" horiz-adv-x="1144" d="M66 1094h159l348 -931l354 931h152l-391 -1002q-22 -55 -49.5 -81t-67.5 -26q-79 0 -120 107z" />
<glyph unicode="w" horiz-adv-x="1743" d="M88 1094h153l241 -930l290 740q21 55 44.5 79.5t60.5 24.5q38 0 63 -25t45 -79l277 -739l247 929h147l-279 -1001q-30 -108 -112 -108q-40 0 -66.5 26.5t-47.5 81.5l-276 722l-287 -722q-22 -56 -47.5 -82t-65.5 -26q-84 0 -114 108z" />
<glyph unicode="x" horiz-adv-x="1109" d="M80 0l389 569l-358 525h174l274 -408l272 408h163l-356 -521l391 -573h-176l-304 453l-302 -453h-167z" />
<glyph unicode="y" horiz-adv-x="1056" d="M56 1094h159l352 -822l275 822h151l-509 -1497h-152l166 480z" />
<glyph unicode="z" horiz-adv-x="1074" d="M80 50q0 29 24 60l656 863h-632v121h780q32 0 49.5 -13.5t17.5 -36.5q0 -27 -24 -59l-655 -860h645v-125h-794q-32 0 -49.5 13.5t-17.5 36.5z" />
<glyph unicode="{" horiz-adv-x="615" d="M80 518v111q94 20 127 124t33 338q0 186 76 270t227 108l12 -110q-97 -18 -136.5 -95.5t-39.5 -203.5v-109q0 -62 -4 -109t-17.5 -105.5t-45.5 -100.5t-81 -63q38 -18 66.5 -52t43.5 -70.5t24 -85.5t11.5 -86.5t2.5 -83.5v-108q0 -127 39 -204t137 -95l-12 -110 q-151 24 -227 107.5t-76 270.5q0 234 -33 337.5t-127 124.5z" />
<glyph unicode="|" horiz-adv-x="487" d="M177 -403v1920h135v-1920h-135z" />
<glyph unicode="}" horiz-adv-x="615" d="M60 -212q67 12 107 55.5t54 102t14 141.5v108q0 308 149 378q-49 21 -81 63t-45.5 100t-18 105.5t-4.5 109.5v109q0 127 -39 204t-136 95l13 110q150 -24 225.5 -108t75.5 -270q0 -234 33.5 -338t127.5 -124v-111q-94 -21 -127.5 -125t-33.5 -337q0 -187 -75.5 -270.5 t-225.5 -107.5z" />
<glyph unicode="~" horiz-adv-x="1249" d="M124 499q14 151 85 232t174 81q77 0 147 -29t114 -63t98 -63t102 -29q59 0 93.5 42.5t51.5 133.5h138q-13 -151 -85 -232.5t-175 -81.5q-77 0 -147 29t-113.5 63t-97.5 63t-102 29q-59 0 -93.5 -42.5t-51.5 -132.5h-138z" />
<glyph unicode="&#xa1;" horiz-adv-x="470" d="M144 -351l26 1015h130l26 -1015h-182zM145 987q0 61 18.5 85t71.5 24q52 0 70.5 -24t18.5 -85t-19 -85t-70 -24q-52 0 -71 24t-19 85z" />
<glyph unicode="&#xa2;" horiz-adv-x="881" d="M106 706q0 99 9 172t32 138t62.5 107.5t101 71.5t147.5 39v193h112v-187q122 0 236 -31l-12 -110q-100 17 -176 17q-83 0 -142 -9t-100 -32.5t-65 -52.5t-37 -80t-17 -103t-4 -133q0 -51 1.5 -87.5t5.5 -77.5t12 -69.5t21 -58.5t32 -49.5t46 -37.5t62 -28.5t80.5 -16.5 t101.5 -6q67 0 179 22l14 -116q-142 -29 -238 -31v-189h-112v192q-86 10 -149.5 44t-101.5 83t-61.5 119.5t-31.5 142.5t-8 164z" />
<glyph unicode="&#xa3;" horiz-adv-x="1175" d="M99 641v120h194q-21 137 -21 272q0 87 25.5 152.5t68 106.5t105.5 66.5t130.5 35t151.5 9.5q113 0 188.5 -33t147.5 -101l-79 -93q-114 94 -250 94q-97 0 -161.5 -16.5t-102.5 -53.5t-53 -88.5t-15 -128.5q0 -81 22 -222h325v-120h-309q10 -82 10 -157q0 -98 -22 -175 t-67 -175h366q157 0 316 22l15 -123q-178 -33 -448 -33h-354q-39 0 -59 17t-20 45q0 18 19 59t42.5 86.5t42.5 117t19 142.5q0 74 -14 174h-213z" />
<glyph unicode="&#xa4;" horiz-adv-x="1235" d="M125 292l144 140q-84 114 -84 253q0 142 85 256l-145 144l92 92l145 -145q116 84 256 84q142 0 256 -82l142 143l95 -92l-144 -141q87 -115 87 -259q0 -141 -87 -254l144 -140l-95 -94l-142 145q-117 -84 -256 -84q-144 0 -259 84l-142 -145zM321 686q0 -120 85.5 -207.5 t210.5 -87.5q120 0 209.5 85.5t89.5 209.5q0 123 -86.5 210t-212.5 87q-121 0 -208.5 -86t-87.5 -211z" />
<glyph unicode="&#xa5;" horiz-adv-x="1085" d="M73 1389h161l309 -683l315 683h155l-339 -728h192v-108h-242l-6 -13v-126h248v-107h-248v-307h-155v307h-243v107h243v126l-6 13h-237v108h187z" />
<glyph unicode="&#xa6;" horiz-adv-x="449" d="M157 -289v661h135v-661h-135zM157 743v660h135v-660h-135z" />
<glyph unicode="&#xa7;" horiz-adv-x="1110" d="M97 638q0 172 207 279q-115 92 -115 214q0 142 104 228.5t286 86.5q189 0 356 -36l-15 -118q-156 30 -305 30q-127 0 -200.5 -47t-73.5 -132q0 -27 9.5 -51.5t23 -43t39.5 -38.5t47 -33t58.5 -30.5t60.5 -27t66 -26.5t73.5 -30t72 -34t70 -41t59.5 -48t50 -57t31 -67 t12 -80q0 -157 -217 -281q137 -109 137 -237q0 -71 -27 -127t-70 -90.5t-103 -57t-120.5 -31.5t-126.5 -9q-190 0 -356 37l16 122q179 -31 304 -31q31 0 52 0.5t58.5 4t63 10t57 20t50.5 32t32 47.5t13 66q0 27 -9 51t-21 42t-38.5 37.5t-45 31.5t-57 29.5t-59.5 26 t-67 26.5q-49 19 -78.5 31.5t-74.5 35.5t-73 42.5t-61 49.5t-51.5 61.5t-31 73.5t-12.5 89zM238 653q0 -72 42 -125.5t155 -104.5q41 -18 120.5 -45.5t130.5 -51.5q84 43 133 88.5t49 105.5q0 71 -49.5 123t-175.5 107q-29 13 -107.5 42t-126.5 53q-171 -81 -171 -192z" />
<glyph unicode="&#xa8;" horiz-adv-x="769" d="M127 1303q0 39 27.5 66.5t66.5 27.5t65.5 -27.5t26.5 -66.5t-26.5 -66.5t-65.5 -27.5t-66.5 27.5t-27.5 66.5zM456 1303q0 39 27 66.5t67 27.5q39 0 66 -27.5t27 -66.5t-27 -66.5t-66 -27.5q-40 0 -67 27.5t-27 66.5z" />
<glyph unicode="&#xa9;" horiz-adv-x="1688" d="M114 718q0 150 57 285.5t154.5 232t233 153.5t285.5 57t285.5 -57t233 -153.5t155 -232t57.5 -285.5t-57.5 -286t-155 -234t-233 -155.5t-285.5 -57.5t-285.5 57.5t-232.5 155.5t-154.5 234t-57.5 286zM224 718q0 -175 82 -319.5t224.5 -227t313.5 -82.5 q172 0 314.5 82.5t224.5 227t82 319.5q0 130 -48.5 246t-131 199t-198 131.5t-243.5 48.5t-243 -48.5t-197.5 -131.5t-131 -199t-48.5 -246zM477 718q0 85 24.5 164t70.5 142.5t119.5 101.5t163.5 38q81 0 154.5 -26.5t129.5 -86.5t68 -144h-117q-12 74 -77 115t-158 41 q-112 0 -183.5 -92t-71.5 -253q0 -162 68.5 -253t186.5 -91q88 0 154.5 48t80.5 129h117q-12 -128 -112.5 -206t-239.5 -78q-123 0 -210 61.5t-127.5 161.5t-40.5 228z" />
<glyph unicode="&#xaa;" horiz-adv-x="861" d="M111 879q0 199 188 228q86 13 303 21v29q0 90 -40 126.5t-150 36.5q-100 0 -249 -22l-9 86q158 26 276 26q64 0 111.5 -9.5t88.5 -33t62 -69t21 -111.5v-342q0 -25 -5 -125q-122 -61 -309 -61q-151 0 -219.5 51t-68.5 169zM222 882q0 -79 42.5 -107t145.5 -28 q109 0 190 32q2 68 2 111v157q-193 -4 -267 -20q-60 -12 -86.5 -43.5t-26.5 -101.5z" />
<glyph unicode="&#xab;" horiz-adv-x="987" d="M74 530l285 403h151l-259 -403l259 -403h-151zM445 530l286 403h151l-260 -403l260 -403h-151z" />
<glyph unicode="&#xac;" horiz-adv-x="1302" d="M137 657v137h995v-586h-150v449h-845z" />
<glyph unicode="&#xad;" horiz-adv-x="818" d="M146 479v130h526v-130h-526z" />
<glyph unicode="&#xae;" horiz-adv-x="1098" d="M105 1003q0 186 129 314.5t315 128.5t315 -128.5t129 -314.5t-129.5 -315t-314.5 -129q-186 0 -315 129t-129 315zM186 1003q0 -156 105 -262t258 -106t258.5 106t105.5 262q0 154 -105.5 260.5t-258.5 106.5t-258 -106t-105 -261zM378 755v514h181q200 0 200 -149 q0 -55 -28 -91t-80 -49l111 -225h-93l-103 213h-105v-213h-83zM461 1038h91q125 0 125 82q0 42 -31.5 60t-96.5 18h-88v-160z" />
<glyph unicode="&#xaf;" horiz-adv-x="852" d="M145 1245v107h562v-107h-562z" />
<glyph unicode="&#xb0;" horiz-adv-x="777" d="M101 1159q0 119 84 203t203 84t203.5 -84t84.5 -203t-84.5 -203t-203.5 -84t-203 84t-84 203zM207 1159q0 -76 52.5 -128.5t128.5 -52.5t129 52.5t53 128.5q0 75 -53 128t-129 53t-128.5 -53t-52.5 -128z" />
<glyph unicode="&#xb1;" horiz-adv-x="1233" d="M119 26v137h996v-137h-996zM119 670v135h424v371h148v-371h424v-135h-424v-377h-148v377h-424z" />
<glyph unicode="&#xb2;" horiz-adv-x="670" d="M53 839q14 82 25.5 130.5t30 97t43.5 78.5t62.5 57t92.5 50q91 39 139.5 85t48.5 116q0 72 -48.5 99t-168.5 27q-83 0 -202 -18l-10 86q141 26 254 26q286 0 286 -199q0 -110 -61 -182t-179 -120q-95 -39 -132.5 -91.5t-51.5 -146.5h424v-95h-553z" />
<glyph unicode="&#xb3;" horiz-adv-x="670" d="M44 855l13 89q146 -19 199 -19q120 0 173 32.5t53 120.5q0 61 -34 97.5t-93 43.5q-47 6 -129 6h-49v84q80 1 177 15q56 9 86.5 43.5t30.5 86.5q0 34 -10 58t-26 37.5t-43.5 21t-54 9.5t-66.5 2q-72 0 -207 -19l-12 87q130 24 235 24q64 0 112.5 -8t92.5 -28.5t67.5 -62 t23.5 -102.5q0 -142 -115 -198q56 -23 92.5 -71t36.5 -119q0 -139 -80 -196.5t-235 -57.5q-123 0 -238 24z" />
<glyph unicode="&#xb4;" horiz-adv-x="466" d="M70 1171l181 293h179l-239 -293h-121z" />
<glyph unicode="&#xb5;" horiz-adv-x="1220" d="M194 -403v1497h141v-701q0 -119 59 -196t170 -77q138 0 214.5 125.5t76.5 327.5v521h143v-719q0 -47 0.5 -69.5t3 -59t8.5 -55.5t16 -41.5t26.5 -35.5t39.5 -21v-108q-55 0 -96 19.5t-65 55t-37.5 74.5t-20.5 90h-1q-42 -114 -124.5 -176.5t-182.5 -62.5 q-70 0 -125.5 26.5t-105.5 84.5v-499h-140z" />
<glyph unicode="&#xb6;" horiz-adv-x="1265" d="M75 1016q0 206 131 311t364 105h516v-1747h-126v1635h-290v-1635h-126v928q-106 1 -194.5 33t-148.5 86.5t-93 127.5t-33 156z" />
<glyph unicode="&#xb7;" horiz-adv-x="465" d="M143 586q0 61 19 85.5t70 24.5t71 -24.5t20 -85.5t-19 -84.5t-72 -23.5q-52 0 -70.5 23.5t-18.5 84.5z" />
<glyph unicode="&#xb8;" horiz-adv-x="447" d="M25 -375l28 75q61 -28 118 -28q39 0 67.5 17t28.5 56q0 47 -56 71t-114 24l95 160h100l-68 -106q67 -3 112.5 -40.5t45.5 -99.5q0 -83 -60.5 -123t-151.5 -40q-85 0 -145 34z" />
<glyph unicode="&#xb9;" horiz-adv-x="446" d="M23 1601q124 20 230 66h85v-825h-109v710q-96 -27 -201 -42z" />
<glyph unicode="&#xba;" horiz-adv-x="899" d="M125 1035q0 205 73.5 290t251.5 85t251 -85.5t73 -289.5q0 -203 -73.5 -289.5t-250.5 -86.5q-178 0 -251.5 85.5t-73.5 290.5zM238 1035q0 -167 45.5 -226t166.5 -59q120 0 166 61t46 224t-45 223.5t-167 60.5q-82 0 -126.5 -24t-65 -85t-20.5 -175z" />
<glyph unicode="&#xbb;" horiz-adv-x="986" d="M104 127l260 403l-259 403h151l285 -403l-285 -403h-152zM477 127l259 403l-259 403h151l285 -403l-285 -403h-151z" />
<glyph unicode="&#xbc;" horiz-adv-x="1485" d="M77 1365q127 21 230 67h85v-826h-109v711q-100 -27 -201 -41zM222 -29l841 1490h124l-841 -1490h-124zM750 261q0 34 47 95l324 420q45 58 97 58q27 0 44 -17.5t17 -52.5v-480h111v-88h-111v-196h-110v196h-335q-84 0 -84 65zM866 284h303v396z" />
<glyph unicode="&#xbd;" horiz-adv-x="1642" d="M80 1365q127 21 230 67h85v-826h-109v711q-100 -27 -201 -41zM227 -29l840 1490h124l-841 -1490h-123zM979 0q12 69 21 111t23.5 87t30.5 72.5t41.5 55t58.5 48t79 39.5q91 39 139.5 85t48.5 116q0 72 -48 99t-168 27q-96 0 -202 -18l-11 87q138 25 254 25 q137 0 211.5 -46t74.5 -153q0 -110 -60.5 -182t-179.5 -120q-95 -39 -132.5 -91.5t-51.5 -146.5h424v-95h-553z" />
<glyph unicode="&#xbe;" horiz-adv-x="1638" d="M94 620l12 88q139 -18 199 -18q120 0 173.5 33t53.5 121q0 61 -34.5 97t-93.5 43q-56 6 -122 6q-35 0 -55 -1v86q96 1 177 13q56 9 86 44t30 87q0 35 -10 58.5t-25.5 37t-43.5 20.5t-53.5 9t-66.5 2q-79 0 -207 -18l-12 87q130 24 235 24q64 0 112 -8t92 -28.5t67.5 -62 t23.5 -102.5q0 -142 -115 -198q56 -23 92.5 -71t36.5 -119q0 -139 -79.5 -196.5t-234.5 -57.5q-115 0 -238 24zM375 -29l840 1490h123l-840 -1490h-123zM903 261q0 35 46 95l325 420q45 58 96 58q27 0 44 -17.5t17 -52.5v-480h111v-88h-111v-196h-109v196h-335q-84 0 -84 65 zM1018 284h304v396z" />
<glyph unicode="&#xbf;" horiz-adv-x="1029" d="M83 40q0 81 16 142t43.5 97.5t63.5 61t75.5 37t79 21t75.5 18t63.5 23t44.5 40t18 66.5l2 118h131l3 -125q0 -6 0.5 -25t0.5 -26q0 -50 -15.5 -84.5t-42 -53t-60.5 -30t-71.5 -19t-75 -15.5t-71.5 -24t-60.5 -40.5t-42 -69t-15.5 -105.5q0 -86 16.5 -137.5t62 -84 t117.5 -44.5t192 -12q146 0 310 29l27 -126q-184 -38 -376 -38q-101 0 -172 8t-139 33t-109 68.5t-66 118t-25 178.5zM539 987q0 61 19 85t72 24q52 0 70.5 -24t18.5 -85t-19 -85t-70 -24q-52 0 -71.5 24t-19.5 85z" />
<glyph unicode="&#xc0;" horiz-adv-x="1348" d="M57 0l495 1339q38 107 126 107q87 0 126 -107l489 -1339h-168l-147 412h-612l-148 -412h-161zM358 1825h192l193 -238h-129zM411 538h522l-261 727z" />
<glyph unicode="&#xc1;" horiz-adv-x="1348" d="M56 0l496 1339q39 107 126 107t126 -107l489 -1339h-168l-147 412h-612l-148 -412h-162zM410 538h522l-260 727zM614 1575l193 238h192l-256 -238h-129z" />
<glyph unicode="&#xc2;" horiz-adv-x="1348" d="M57 0l495 1339q38 107 126 107q87 0 126 -107l489 -1339h-168l-147 412h-612l-148 -412h-161zM401 1575l205 238h132l210 -238h-131l-143 164l-144 -164h-129zM411 538h522l-261 727z" />
<glyph unicode="&#xc3;" horiz-adv-x="1348" d="M57 0l495 1339q38 107 126 107q87 0 126 -107l489 -1339h-168l-147 412h-612l-148 -412h-161zM410 538h522l-260 727zM426 1599q9 93 50.5 143.5t94.5 50.5q39 0 69.5 -15.5t46 -34t35 -34t39.5 -15.5q53 0 69 95h93q-9 -93 -51 -143.5t-95 -50.5q-39 0 -69.5 15.5 t-45.5 33.5t-34.5 33.5t-39.5 15.5q-52 0 -68 -94h-94z" />
<glyph unicode="&#xc4;" horiz-adv-x="1348" d="M56 0l496 1339q39 107 125 107q89 0 127 -107l489 -1339h-169l-147 412h-612l-147 -412h-162zM410 538h522l-260 727zM417 1690q0 39 28 66.5t67 27.5t66 -27.5t27 -66.5t-27 -66t-66 -27t-67 27t-28 66zM747 1690q0 39 27.5 66.5t66.5 27.5t66 -27.5t27 -66.5t-26.5 -66 t-66.5 -27q-39 0 -66.5 27t-27.5 66z" />
<glyph unicode="&#xc5;" horiz-adv-x="1348" d="M56 0l496 1339q39 107 126 107q88 0 126 -107l489 -1339h-169l-147 412h-612l-147 -412h-162zM410 538h522l-260 727zM474 1756q0 82 59 140.5t142 58.5t141 -58.5t58 -140.5q0 -83 -58.5 -142t-140.5 -59q-83 0 -142 59t-59 142zM556 1756q0 -50 35 -84.5t84 -34.5 t83.5 35t34.5 84t-34.5 83t-83.5 34q-50 0 -84.5 -34t-34.5 -83z" />
<glyph unicode="&#xc6;" horiz-adv-x="1869" d="M56 0l475 1280q62 166 286 166q140 0 209 -94q57 52 147.5 67.5t229.5 15.5q166 0 353 -8v-124h-359q-103 0 -160 -10t-92 -42.5t-45 -82t-10 -139.5v-236h636v-128h-636v-264q0 -90 10 -139t45 -81.5t92 -42.5t160 -10h359v-125q-160 -7 -353 -7q-48 0 -80.5 1t-76.5 4 t-73.5 9t-65 17.5t-59 27.5t-47 40t-37.5 54.5t-22.5 71.5t-8.5 91v100h-567l-148 -412h-162zM410 538h523v594q0 98 -32 139t-104 41q-37 0 -64.5 -11.5t-46.5 -37.5t-30 -49.5t-25 -63.5z" />
<glyph unicode="&#xc7;" horiz-adv-x="1084" d="M133 716q0 132 10.5 231t36 184t68 141.5t106.5 97t151 58.5t203 18q172 0 327 -31l-15 -126q-150 23 -250 23q-73 0 -132.5 -8t-105.5 -22t-81 -39t-60.5 -52t-43 -68.5t-28 -80.5t-16 -96t-7.5 -108t-2 -122q0 -63 1.5 -111t6.5 -99t13 -89t21.5 -77t33 -67t46 -54 t61 -43.5t78 -30.5t97 -19t118.5 -6q100 0 250 22l15 -124q-141 -29 -290 -32l-53 -82q67 -3 112.5 -40.5t45.5 -100.5q0 -83 -60 -122.5t-152 -39.5q-84 0 -144 34l28 75q61 -28 117 -28q40 0 68.5 17t28.5 56q0 47 -56.5 71t-114.5 24l81 136q-123 6 -211 38t-146.5 87.5 t-93 145t-48.5 198.5t-14 261z" />
<glyph unicode="&#xc8;" horiz-adv-x="1102" d="M167 312v806q0 50 8.5 91t22.5 71.5t37.5 54.5t47 40t59 27.5t65.5 18t73.5 9.5t76 4t80.5 1q165 0 352 -8v-124h-358q-103 0 -160 -10t-92 -42.5t-45 -82t-10 -139.5v-236h636v-128h-636v-264q0 -90 10 -139t45 -81.5t92 -42.5t160 -10h358v-125q-158 -7 -352 -7 q-48 0 -80.5 1t-76.5 4t-73.5 9t-65 17.5t-59 27.5t-47 40t-37.5 54.5t-22.5 71.5t-8.5 91zM372 1802h193l193 -238h-129z" />
<glyph unicode="&#xc9;" horiz-adv-x="1103" d="M167 312v806q0 50 8.5 91t22.5 71.5t37.5 54.5t47 40t59 27.5t65.5 18t73.5 9.5t76 4t80.5 1q165 0 352 -8v-124h-358q-103 0 -160 -10t-92 -42.5t-45 -82t-10 -139.5v-236h636v-128h-636v-264q0 -90 10 -139t45 -81.5t92 -42.5t160 -10h358v-125q-158 -7 -352 -7 q-48 0 -80.5 1t-76.5 4t-73.5 9t-65 17.5t-59 27.5t-47 40t-37.5 54.5t-22.5 71.5t-8.5 91zM506 1564l193 238h193l-256 -238h-130z" />
<glyph unicode="&#xca;" horiz-adv-x="1103" d="M167 312v806q0 50 8.5 91t22.5 71.5t37.5 54.5t47 40t59 27.5t65.5 18t73.5 9.5t76 4t80.5 1q165 0 352 -8v-124h-358q-103 0 -160 -10t-92 -42.5t-45 -82t-10 -139.5v-236h636v-128h-636v-264q0 -90 10 -139t45 -81.5t92 -42.5t160 -10h358v-125q-158 -7 -352 -7 q-48 0 -80.5 1t-76.5 4t-73.5 9t-65 17.5t-59 27.5t-47 40t-37.5 54.5t-22.5 71.5t-8.5 91zM336 1564l205 238h132l210 -238h-131l-143 164l-144 -164h-129z" />
<glyph unicode="&#xcb;" horiz-adv-x="1103" d="M167 312v806q0 50 8.5 91t22.5 71.5t37.5 54.5t47 40t59 27.5t65.5 18t73.5 9.5t76 4t80.5 1q165 0 352 -8v-124h-358q-103 0 -160 -10t-92 -42.5t-45 -82t-10 -139.5v-236h636v-128h-636v-264q0 -90 10 -139t45 -81.5t92 -42.5t160 -10h358v-125q-158 -7 -352 -7 q-48 0 -80.5 1t-76.5 4t-73.5 9t-65 17.5t-59 27.5t-47 40t-37.5 54.5t-22.5 71.5t-8.5 91zM358 1681q0 39 27.5 66.5t66.5 27.5t65.5 -27.5t26.5 -66.5t-26.5 -66.5t-65.5 -27.5t-66.5 27.5t-27.5 66.5zM687 1681q0 39 27.5 66.5t66.5 27.5t66 -27.5t27 -66.5t-27 -66.5 t-66 -27.5t-66.5 27.5t-27.5 66.5z" />
<glyph unicode="&#xcc;" horiz-adv-x="505" d="M-65 1807h192l194 -238h-130zM174 0v1432h158v-1432h-158z" />
<glyph unicode="&#xcd;" horiz-adv-x="505" d="M174 0v1432h158v-1432h-158zM186 1569l193 238h192l-256 -238h-129z" />
<glyph unicode="&#xce;" horiz-adv-x="505" d="M-20 1559l205 238h131l211 -238h-131l-143 164l-145 -164h-128zM174 0v1432h158v-1432h-158z" />
<glyph unicode="&#xcf;" horiz-adv-x="505" d="M-5 1676q0 39 28 66.5t67 27.5t65.5 -27.5t26.5 -66.5t-26.5 -66t-65.5 -27t-67 27t-28 66zM174 0v1432h158v-1432h-158zM324 1676q0 39 27.5 66.5t66.5 27.5q40 0 67 -27.5t27 -66.5t-27 -66t-67 -27q-39 0 -66.5 27t-27.5 66z" />
<glyph unicode="&#xd0;" horiz-adv-x="1431" d="M107 681v117h125v616q202 32 435 32q113 0 201 -15.5t153.5 -43.5t112 -75.5t77 -103.5t48 -135t24 -163t6.5 -194q0 -130 -9.5 -224t-34.5 -181t-69 -144t-113 -100t-167 -62.5t-229 -19.5q-231 0 -435 34v662h-125zM389 136q141 -19 236 -19q105 0 185.5 17t134 40.5 t89.5 73t54.5 88t28 114.5t11 124t1.5 142q0 73 -0.5 111t-5 100.5t-13.5 95.5t-26 81t-42 73.5t-63 56t-88 45t-117 25t-149 10.5q-96 0 -236 -17v-499h231v-117h-231v-545z" />
<glyph unicode="&#xd1;" horiz-adv-x="1437" d="M176 0v1334q0 57 26 84.5t71 27.5q76 0 139 -102l706 -1136v1224h145v-1334q0 -57 -26 -85t-71 -28q-42 0 -74.5 24.5t-65.5 78.5l-705 1137v-1225h-145zM477 1598q9 93 50 143.5t95 50.5q39 0 69 -15.5t46 -34t35.5 -34t39.5 -15.5q52 0 68 94h93q-9 -93 -50.5 -143.5 t-94.5 -50.5q-39 0 -69.5 15.5t-46 34t-35 34t-39.5 15.5q-52 0 -68 -94h-93z" />
<glyph unicode="&#xd2;" d="M140 716q0 201 25.5 334t89.5 224.5t170.5 131.5t268.5 40t268.5 -40t170.5 -131.5t89.5 -224.5t25.5 -334t-25.5 -334t-89.5 -225t-170.5 -132t-268.5 -40t-268.5 40t-170.5 132t-89.5 225t-25.5 334zM300 716q0 -90 2 -144.5t10 -125.5t23.5 -113t44 -88t70 -70 t103 -40t141.5 -16t141 16t103 40t70.5 70t44 88t23.5 112.5t10 126t2 144.5q0 62 -1 102.5t-3.5 93.5t-9 88t-16 77t-25 69.5t-37 57t-50.5 47.5t-65.5 33.5t-83.5 22t-103 6.5q-80 0 -141.5 -16t-103 -40t-70 -70t-44 -87.5t-23.5 -112.5t-10 -126t-2 -145zM429 1806h192 l194 -238h-130z" />
<glyph unicode="&#xd3;" d="M140 716q0 201 25.5 334t89.5 224.5t170.5 131.5t268.5 40t268.5 -40t170.5 -131.5t89.5 -224.5t25.5 -334t-25.5 -334t-89.5 -225t-170.5 -132t-268.5 -40t-268.5 40t-170.5 132t-89.5 225t-25.5 334zM300 716q0 -90 2 -144.5t10 -125.5t23.5 -113t44 -88t70 -70 t103 -40t141.5 -16t141 16t103 40t70.5 70t44 88t23.5 112.5t10 126t2 144.5q0 62 -1 102.5t-3.5 93.5t-9 88t-16 77t-25 69.5t-37 57t-50.5 47.5t-65.5 33.5t-83.5 22t-103 6.5q-80 0 -141.5 -16t-103 -40t-70 -70t-44 -87.5t-23.5 -112.5t-10 -126t-2 -145zM586 1568 l193 238h192l-256 -238h-129z" />
<glyph unicode="&#xd4;" d="M140 716q0 201 25.5 334t89.5 224.5t170.5 131.5t268.5 40t268.5 -40t170.5 -131.5t89.5 -224.5t25.5 -334t-25.5 -334t-89.5 -225t-170.5 -132t-268.5 -40t-268.5 40t-170.5 132t-89.5 225t-25.5 334zM300 716q0 -90 2 -144.5t10 -125.5t23.5 -113t44 -88t70 -70 t103 -40t141.5 -16t141 16t103 40t70.5 70t44 88t23.5 112.5t10 126t2 144.5q0 62 -1 102.5t-3.5 93.5t-9 88t-16 77t-25 69.5t-37 57t-50.5 47.5t-65.5 33.5t-83.5 22t-103 6.5q-80 0 -141.5 -16t-103 -40t-70 -70t-44 -87.5t-23.5 -112.5t-10 -126t-2 -145zM421 1568 l205 238h132l210 -238h-131l-143 164l-144 -164h-129z" />
<glyph unicode="&#xd5;" d="M140 716q0 201 25.5 334t89.5 224.5t170.5 131.5t268.5 40t268.5 -40t170.5 -131.5t89.5 -224.5t25.5 -334t-25.5 -334t-89.5 -225t-170.5 -132t-268.5 -40t-268.5 40t-170.5 132t-89.5 225t-25.5 334zM300 716q0 -90 2 -144.5t10 -125.5t23.5 -113t44 -88t70 -70 t103 -40t141.5 -16t141 16t103 40t70.5 70t44 88t23.5 112.5t10 126t2 144.5q0 62 -1 102.5t-3.5 93.5t-9 88t-16 77t-25 69.5t-37 57t-50.5 47.5t-65.5 33.5t-83.5 22t-103 6.5q-80 0 -141.5 -16t-103 -40t-70 -70t-44 -87.5t-23.5 -112.5t-10 -126t-2 -145zM445 1582 q9 93 50.5 143.5t94.5 50.5q39 0 69 -15.5t46 -34t35.5 -34t39.5 -15.5q52 0 68 95h93q-9 -93 -50 -143.5t-95 -50.5q-39 0 -69 15.5t-46 34t-35.5 34t-39.5 15.5q-51 0 -67 -95h-94z" />
<glyph unicode="&#xd6;" d="M140 716q0 201 25.5 334t89.5 224.5t170.5 131.5t268.5 40t268.5 -40t170.5 -131.5t89.5 -224.5t25.5 -334t-25.5 -334t-89.5 -225t-170.5 -132t-268.5 -40t-268.5 40t-170.5 132t-89.5 225t-25.5 334zM300 716q0 -90 2 -144.5t10 -125.5t23.5 -113t44 -88t70 -70 t103 -40t141.5 -16t141 16t103 40t70.5 70t44 88t23.5 112.5t10 126t2 144.5q0 62 -1 102.5t-3.5 93.5t-9 88t-16 77t-25 69.5t-37 57t-50.5 47.5t-65.5 33.5t-83.5 22t-103 6.5q-80 0 -141.5 -16t-103 -40t-70 -70t-44 -87.5t-23.5 -112.5t-10 -126t-2 -145zM436 1672 q0 39 27.5 66.5t67.5 27.5q39 0 65.5 -27.5t26.5 -66.5t-26.5 -66t-65.5 -27q-40 0 -67.5 27t-27.5 66zM766 1672q0 39 27.5 66.5t66.5 27.5t65.5 -27.5t26.5 -66.5t-26.5 -66t-65.5 -27t-66.5 27t-27.5 66z" />
<glyph unicode="&#xd7;" horiz-adv-x="1117" d="M113 254l347 347l-346 347l99 98l347 -346l346 346l96 -97l-345 -346l347 -347l-98 -100l-348 348l-347 -348z" />
<glyph unicode="&#xd8;" d="M140 716q0 201 25.5 334t89.5 224.5t170.5 131.5t268.5 40q205 0 324 -67l79 134l103 -65l-87 -147q73 -84 104 -226t31 -359q0 -201 -25.5 -334t-89.5 -225t-170.5 -132t-268.5 -40q-204 0 -323 67l-80 -133l-103 64l87 147q-73 84 -104 226.5t-31 359.5zM300 716 q0 -166 11 -268t50 -174l582 979q-89 60 -249 60q-80 0 -141.5 -16t-103 -40t-70 -70t-44 -87.5t-23.5 -112.5t-10 -126t-2 -145zM445 179q88 -60 249 -60q80 0 141 16t103 40t70.5 70t44 88t23.5 112.5t10 126t2 144.5q0 166 -11 268t-50 174z" />
<glyph unicode="&#xd9;" horiz-adv-x="1367" d="M165 463v969h156v-985q0 -169 84.5 -248t275.5 -79q193 0 276.5 79t83.5 248v985h156v-969q0 -112 -24 -195.5t-67 -137t-109 -86.5t-142 -46t-174 -13t-174 13t-142 46t-109 86.5t-67 137t-24 195.5zM410 1796h192l194 -238h-129z" />
<glyph unicode="&#xda;" horiz-adv-x="1367" d="M165 463v969h156v-985q0 -169 84.5 -248t275.5 -79q193 0 276.5 79t83.5 248v985h156v-969q0 -112 -24 -195.5t-67 -137t-109 -86.5t-142 -46t-174 -13t-174 13t-142 46t-109 86.5t-67 137t-24 195.5zM577 1558l193 238h192l-255 -238h-130z" />
<glyph unicode="&#xdb;" horiz-adv-x="1367" d="M165 463v969h156v-985q0 -169 84.5 -248t275.5 -79q193 0 276.5 79t83.5 248v985h156v-969q0 -112 -24 -195.5t-67 -137t-109 -86.5t-142 -46t-174 -13t-174 13t-142 46t-109 86.5t-67 137t-24 195.5zM418 1558l206 238h132l209 -238h-131l-143 164l-144 -164h-129z" />
<glyph unicode="&#xdc;" horiz-adv-x="1367" d="M165 463v969h156v-985q0 -169 84.5 -248t275.5 -79q193 0 276.5 79t83.5 248v985h156v-969q0 -112 -24 -195.5t-67 -137t-109 -86.5t-142 -46t-174 -13t-174 13t-142 46t-109 86.5t-67 137t-24 195.5zM423 1677q0 39 27.5 66.5t66.5 27.5t66 -27.5t27 -66.5t-27 -66.5 t-66 -27.5t-66.5 27.5t-27.5 66.5zM752 1677q0 39 27.5 66.5t66.5 27.5q40 0 67 -27.5t27 -66.5t-27 -66.5t-67 -27.5q-39 0 -66.5 27.5t-27.5 66.5z" />
<glyph unicode="&#xdd;" horiz-adv-x="1158" d="M41 1432h172l366 -715l374 715h165l-461 -875v-557h-159v557zM488 1552l193 238h193l-256 -238h-130z" />
<glyph unicode="&#xde;" horiz-adv-x="1230" d="M162 0v1432h157v-271q140 14 279 14q70 0 127 -4t116 -16t104 -31.5t86 -51.5t67 -75t41.5 -104t15.5 -137q0 -103 -26.5 -179.5t-72 -123.5t-116 -75.5t-147.5 -39t-178 -10.5t-296 11v-339h-157zM319 470q123 -13 279 -13q100 0 170 13t124 45.5t80 92t26 148.5 q0 156 -89.5 223t-302.5 67q-147 0 -287 -19v-557z" />
<glyph unicode="&#xdf;" horiz-adv-x="1259" d="M157 0v981q0 296 108 423.5t357 127.5q225 0 335 -90t110 -236q0 -59 -19 -105t-49 -74.5t-66.5 -51.5t-73.5 -42.5t-67 -40t-49 -51t-19 -70.5q0 -45 24.5 -77t63 -52t85.5 -38t94 -42t85.5 -56t63 -88t24.5 -131q0 -82 -25.5 -142t-72.5 -94t-105.5 -50t-131.5 -16 q-143 0 -292 41l12 118q147 -33 225 -33q24 0 40 0.5t43.5 4t46 9.5t41 18t36 29.5t23 44.5t9.5 61q0 49 -19 86t-49.5 58.5t-70 42t-80.5 35.5t-80.5 38.5t-70 51t-49.5 74t-19 107.5q0 59 19 103.5t49 71t66.5 47.5t73 40.5t66.5 42t49 59t19 85.5q0 83 -73 134.5 t-222 51.5q-117 0 -184.5 -39t-100 -131t-32.5 -255v-981h-148z" />
<glyph unicode="&#xe0;" horiz-adv-x="1142" d="M93 312q0 298 276 339q133 20 467 32v49q0 139 -62.5 195.5t-235.5 56.5q-152 0 -365 -31l-14 118q238 38 407 38q75 0 133.5 -8t113.5 -30.5t91 -58.5t57.5 -95.5t21.5 -139.5v-517q0 -112 -5 -187q-179 -88 -458 -88q-223 0 -325 76t-102 251zM242 316 q0 -122 66.5 -165.5t227.5 -43.5q172 0 296 49q4 69 4 172v243q-293 -5 -415 -29q-97 -20 -138 -68t-41 -158zM278 1543h180l180 -294h-120z" />
<glyph unicode="&#xe1;" horiz-adv-x="1142" d="M93 312q0 298 276 339q133 20 467 32v49q0 139 -62.5 195.5t-235.5 56.5q-152 0 -365 -31l-14 118q238 38 407 38q75 0 133.5 -8t113.5 -30.5t91 -58.5t57.5 -95.5t21.5 -139.5v-517q0 -97 -6 -187q-177 -88 -457 -88q-223 0 -325 76t-102 251zM241 316q0 -122 67 -165.5 t228 -43.5q172 0 296 49q4 69 4 172v243q-293 -5 -415 -29q-97 -20 -138.5 -68.5t-41.5 -157.5zM479 1247l181 294h180l-240 -294h-121z" />
<glyph unicode="&#xe2;" horiz-adv-x="1142" d="M93 312q0 298 276 339q133 20 467 32v49q0 139 -62.5 195.5t-235.5 56.5q-152 0 -365 -31l-14 118q238 38 407 38q75 0 133.5 -8t113.5 -30.5t91 -58.5t57.5 -95.5t21.5 -139.5v-517q0 -112 -5 -187q-179 -88 -458 -88q-223 0 -325 76t-102 251zM242 316 q0 -122 66.5 -165.5t227.5 -43.5q172 0 296 49q4 69 4 172v243q-293 -5 -415 -29q-97 -20 -138 -68t-41 -158zM310 1241l192 294h124l196 -294h-123l-134 203l-135 -203h-120z" />
<glyph unicode="&#xe3;" horiz-adv-x="1142" d="M93 312q0 298 276 339q133 20 467 32v49q0 139 -62.5 195.5t-235.5 56.5q-152 0 -365 -31l-14 118q238 38 407 38q75 0 133.5 -8t113.5 -30.5t91 -58.5t57.5 -95.5t21.5 -139.5v-517q0 -112 -5 -187q-179 -88 -458 -88q-223 0 -325 76t-102 251zM242 316 q0 -122 66.5 -165.5t227.5 -43.5q173 0 296 49q4 69 4 172v243q-293 -5 -415 -29q-97 -20 -138 -68t-41 -158zM321 1295q9 97 50.5 149.5t94.5 52.5q39 0 69.5 -16t46 -35.5t35 -35.5t39.5 -16q52 0 68 99h93q-9 -97 -50.5 -150t-94.5 -53q-39 0 -69.5 16t-46 35.5t-35 35.5 t-39.5 16q-52 0 -68 -98h-93z" />
<glyph unicode="&#xe4;" horiz-adv-x="1142" d="M93 312q0 298 276 339q133 20 467 32v49q0 139 -62.5 195.5t-235.5 56.5q-152 0 -365 -31l-14 118q238 38 407 38q75 0 133.5 -8t113.5 -30.5t91 -58.5t57.5 -95.5t21.5 -139.5v-517q0 -112 -5 -187q-179 -88 -458 -88q-223 0 -325 76t-102 251zM242 316 q0 -122 66.5 -165.5t227.5 -43.5q173 0 296 49q4 69 4 172v243q-293 -5 -415 -29q-97 -20 -138 -68t-41 -158zM314 1385q0 39 27.5 66.5t66.5 27.5t66 -27.5t27 -66.5t-27 -66t-66 -27t-66.5 27t-27.5 66zM643 1385q0 39 27 66.5t67 27.5q39 0 66 -27.5t27 -66.5t-27 -66 t-66 -27q-40 0 -67 27t-27 66z" />
<glyph unicode="&#xe5;" horiz-adv-x="1142" d="M93 312q0 298 276 339q133 20 467 32v49q0 139 -62.5 195.5t-235.5 56.5q-152 0 -365 -31l-14 118q238 38 407 38q75 0 133.5 -8t113.5 -30.5t91 -58.5t57.5 -95.5t21.5 -139.5v-517q0 -112 -5 -187q-179 -88 -458 -88q-223 0 -325 76t-102 251zM242 316 q0 -122 66.5 -165.5t227.5 -43.5q172 0 296 49q4 69 4 172v243q-293 -5 -415 -29q-97 -20 -138 -68t-41 -158zM364 1419q0 83 58.5 141.5t140.5 58.5q83 0 142 -58.5t59 -141.5t-59 -141.5t-142 -58.5t-141 58.5t-58 141.5zM445 1419q0 -49 34.5 -83.5t83.5 -34.5 q50 0 85 34.5t35 83.5t-35 83.5t-85 34.5q-49 0 -83.5 -34.5t-34.5 -83.5z" />
<glyph unicode="&#xe6;" horiz-adv-x="1900" d="M93 312q0 298 276 339q134 20 468 32v49q0 139 -63 195.5t-236 56.5q-152 0 -365 -31l-13 118q237 38 407 38q137 0 230 -33t137 -117q102 150 382 150q109 0 191 -23t135 -64t85.5 -104t45.5 -135.5t13 -166.5q0 -54 -3 -104q-92 -16 -256 -31t-281 -20l-260 -11 q7 -89 25.5 -148t58.5 -104.5t108 -66t170 -20.5q156 0 387 31l13 -120q-243 -37 -458 -37q-221 0 -329 130l-2 -51q-176 -79 -439 -79q-223 0 -325 76t-102 251zM242 316q0 -122 67 -165.5t227 -43.5q173 0 297 49q4 104 4 172v243q-295 -5 -415 -29q-97 -19 -138.5 -67.5 t-41.5 -158.5zM983 563l289 14q189 8 361 30q3 33 3 77q0 148 -74 225.5t-246 77.5q-102 0 -168 -25.5t-102 -81.5t-49.5 -130t-13.5 -187z" />
<glyph unicode="&#xe7;" horiz-adv-x="922" d="M127 559q0 95 8 166t27.5 135.5t54 108.5t87 76.5t127 48t172.5 15.5q127 0 246 -31l-13 -115q-103 19 -182 19q-64 0 -114 -5.5t-89 -18.5t-66.5 -29.5t-47 -44.5t-31 -57.5t-18 -74t-8.5 -88t-2 -105.5q0 -69 2.5 -114.5t10.5 -97t24 -83.5t43 -63.5t66.5 -48.5 t96 -27.5t130.5 -10.5q69 0 185 24l14 -121q-140 -28 -242 -31l-53 -82q67 -3 112.5 -40.5t45.5 -100.5q0 -83 -60.5 -122.5t-152.5 -39.5q-84 0 -144 34l28 75q61 -28 117 -28q40 0 68.5 17t28.5 56q0 47 -56.5 71t-113.5 24l81 137q-94 7 -163 41t-110.5 84t-66.5 124.5 t-33.5 150t-8.5 172.5z" />
<glyph unicode="&#xe8;" horiz-adv-x="1188" d="M125 547q0 303 106.5 432.5t371.5 129.5q136 0 229.5 -34t145.5 -101.5t74 -153.5t22 -204q0 -54 -3 -104q-92 -16 -256 -31t-281 -20l-259 -11q7 -89 25.5 -148t58.5 -104.5t108 -66t170 -20.5q154 0 385 31l15 -120q-243 -37 -459 -37q-105 0 -184.5 28t-130 76 t-82 120.5t-44 154t-12.5 183.5zM271 563l289 14q191 8 362 30q2 22 2 77q0 147 -74.5 225t-246.5 78q-102 0 -167.5 -25.5t-101.5 -81.5t-49.5 -130t-13.5 -187zM365 1543h179l181 -294h-121z" />
<glyph unicode="&#xe9;" horiz-adv-x="1188" d="M125 547q0 303 106.5 432.5t371.5 129.5q136 0 229.5 -34t145.5 -101.5t74 -153.5t22 -204q0 -54 -3 -104q-92 -16 -256.5 -31t-281.5 -20l-259 -11q7 -89 25.5 -148t58.5 -104.5t108 -66t170 -20.5q155 0 386 31l14 -120q-243 -37 -458 -37q-105 0 -184.5 28t-130 76 t-82 120.5t-44 154t-12.5 183.5zM270 563l290 14q189 8 361 30q3 33 3 77q0 148 -74.5 225.5t-246.5 77.5q-102 0 -168 -25.5t-102 -81.5t-49.5 -130t-13.5 -187zM539 1244l181 294h180l-240 -294h-121z" />
<glyph unicode="&#xea;" horiz-adv-x="1188" d="M125 547q0 303 106.5 432.5t371.5 129.5q136 0 229.5 -34t145.5 -101.5t74 -153.5t22 -204q0 -54 -3 -104q-92 -16 -256 -31t-281 -20l-259 -11q7 -89 25.5 -148t58.5 -104.5t108 -66t170 -20.5q154 0 385 31l15 -120q-243 -37 -459 -37q-105 0 -184.5 28t-130 76 t-82 120.5t-44 154t-12.5 183.5zM271 563l289 14q191 8 362 30q2 22 2 77q0 147 -74.5 225t-246.5 78q-102 0 -167.5 -25.5t-101.5 -81.5t-49.5 -130t-13.5 -187zM364 1241l191 294h124l196 -294h-122l-134 203l-135 -203h-120z" />
<glyph unicode="&#xeb;" horiz-adv-x="1188" d="M125 547q0 303 106.5 432.5t371.5 129.5q136 0 229.5 -34t145.5 -101.5t74 -153.5t22 -204q0 -54 -3 -104q-92 -16 -256 -31t-281 -20l-259 -11q7 -89 25.5 -148t58.5 -104.5t108 -66t170 -20.5q154 0 385 31l15 -120q-243 -37 -459 -37q-105 0 -184.5 28t-130 76 t-82 120.5t-44 154t-12.5 183.5zM271 563l289 14q191 8 362 30q2 22 2 77q0 147 -74.5 225t-246.5 78q-102 0 -167.5 -25.5t-101.5 -81.5t-49.5 -130t-13.5 -187zM371 1385q0 39 27.5 66.5t67.5 27.5q39 0 65.5 -27.5t26.5 -66.5t-26.5 -66t-65.5 -27q-40 0 -67.5 27 t-27.5 66zM700 1385q0 39 27.5 66.5t66.5 27.5t66 -27.5t27 -66.5t-27 -66t-66 -27t-66.5 27t-27.5 66z" />
<glyph unicode="&#xec;" horiz-adv-x="457" d="M-75 1557h180l181 -294h-121zM154 0v1094h150v-1094h-150z" />
<glyph unicode="&#xed;" horiz-adv-x="457" d="M154 0v1094h150v-1094h-150zM172 1263l181 294h180l-240 -294h-121z" />
<glyph unicode="&#xee;" horiz-adv-x="457" d="M-26 1269l191 294h124l196 -294h-122l-134 203l-136 -203h-119zM154 0v1094h150v-1094h-150z" />
<glyph unicode="&#xef;" horiz-adv-x="457" d="M-29 1394q0 39 27.5 66.5t66.5 27.5t66 -27.5t27 -66.5t-27 -66t-66 -27t-66.5 27t-27.5 66zM154 0v1094h150v-1094h-150zM300 1394q0 39 27.5 66.5t66.5 27.5t66 -27.5t27 -66.5t-26.5 -66t-66.5 -27q-39 0 -66.5 27t-27.5 66z" />
<glyph unicode="&#xf0;" horiz-adv-x="1198" d="M104 541q0 296 108.5 420t372.5 124q159 0 254 -58q-41 120 -104 230l-176 -64l-48 84l173 63q-47 72 -116 149l131 43q61 -61 119 -143l174 63l49 -84l-171 -62q96 -166 145.5 -364t49.5 -401q0 -301 -108.5 -428.5t-371.5 -127.5q-264 0 -372.5 126t-108.5 430z M255 541q0 -172 32 -264.5t101 -129t197 -36.5q188 0 259.5 92t71.5 338q0 237 -71.5 327.5t-259.5 90.5q-128 0 -197 -36t-101 -126t-32 -256z" />
<glyph unicode="&#xf1;" horiz-adv-x="1230" d="M160 0v831q0 97 6 187q209 91 494 91q78 0 140 -11t104.5 -29t73.5 -47.5t48.5 -60.5t27.5 -74.5t13 -83t3 -92.5v-711h-148v684q0 67 -6 111t-24.5 83t-53 60.5t-90.5 33.5t-138 12q-70 0 -158.5 -15.5t-138.5 -38.5q-5 -87 -5 -171v-759h-148zM376 1301 q9 97 50.5 149.5t94.5 52.5q39 0 69.5 -16t46 -35.5t35 -35.5t39.5 -16q52 0 68 99h94q-9 -97 -51 -150t-95 -53q-39 0 -69.5 16t-45.5 35.5t-34.5 35.5t-39.5 16q-53 0 -69 -98h-93z" />
<glyph unicode="&#xf2;" horiz-adv-x="1219" d="M130 547q0 308 108 435t372 127q263 0 371.5 -128.5t108.5 -433.5q0 -304 -108.5 -433t-371.5 -129q-264 0 -372 127t-108 435zM280 547q0 -132 16.5 -215t57 -133t100.5 -69t156 -19q128 0 198 40.5t101 133.5t31 262t-30.5 262t-100.5 133.5t-199 40.5q-96 0 -156 -19 t-100.5 -69t-57 -133t-16.5 -215zM358 1543h180l180 -294h-121z" />
<glyph unicode="&#xf3;" horiz-adv-x="1220" d="M130 547q0 308 108 435t372 127q263 0 372 -128.5t109 -433.5q0 -304 -109 -433t-372 -129q-264 0 -372 127t-108 435zM280 547q0 -175 32 -268.5t101 -130.5t197 -37q96 0 157.5 21t101.5 72.5t56 133.5t16 209q0 249 -71 342.5t-260 93.5q-128 0 -197 -37t-101 -130.5 t-32 -268.5zM511 1258l180 294h180l-239 -294h-121z" />
<glyph unicode="&#xf4;" horiz-adv-x="1220" d="M130 547q0 308 108 435t372 127q263 0 372 -128.5t109 -433.5q0 -304 -109 -433t-372 -129q-264 0 -372 127t-108 435zM280 547q0 -175 32 -268.5t101 -130.5t197 -37q96 0 157.5 21t101.5 72.5t56 133.5t16 209q0 249 -71 342.5t-260 93.5q-128 0 -197 -37t-101 -130.5 t-32 -268.5zM354 1247l192 294h123l197 -294h-123l-133 203l-136 -203h-120z" />
<glyph unicode="&#xf5;" horiz-adv-x="1219" d="M130 547q0 308 108 435t372 127q263 0 371.5 -128.5t108.5 -433.5q0 -304 -108.5 -433t-371.5 -129q-264 0 -372 127t-108 435zM280 547q0 -132 16.5 -215t57 -133t100.5 -69t156 -19q128 0 198 40.5t101 133.5t31 262t-30.5 262t-100.5 133.5t-199 40.5q-96 0 -156 -19 t-100.5 -69t-57 -133t-16.5 -215zM361 1289q9 97 50.5 149.5t95.5 52.5q39 0 69 -16t45.5 -35.5t35 -35.5t39.5 -16q52 0 68 98h94q-9 -97 -51 -149.5t-95 -52.5q-39 0 -69.5 16t-45.5 35.5t-34.5 35.5t-39.5 16q-51 0 -68 -98h-94z" />
<glyph unicode="&#xf6;" horiz-adv-x="1220" d="M130 547q0 308 108 435t372 127q263 0 372 -128.5t109 -433.5q0 -304 -109 -433t-372 -129q-264 0 -372 127t-108 435zM280 547q0 -175 32 -268.5t101 -130.5t197 -37q96 0 157.5 21t101.5 72.5t56 133.5t16 209q0 249 -71 342.5t-260 93.5q-128 0 -197 -37t-101 -130.5 t-32 -268.5zM352 1385q0 39 27.5 66.5t66.5 27.5t66 -27.5t27 -66.5t-27 -66t-66 -27t-66.5 27t-27.5 66zM681 1385q0 39 27 66.5t67 27.5q39 0 66 -27.5t27 -66.5t-27 -66t-66 -27q-40 0 -67 27t-27 66z" />
<glyph unicode="&#xf7;" horiz-adv-x="1193" d="M100 533v137h995v-137h-995zM485 175q0 47 32.5 80t79.5 33t80 -33t33 -80q0 -46 -33.5 -79t-79.5 -33t-79 33t-33 79zM485 1027q0 47 32.5 79.5t79.5 32.5t80 -33t33 -79t-33 -79t-80 -33t-79.5 32.5t-32.5 79.5z" />
<glyph unicode="&#xf8;" horiz-adv-x="1219" d="M130 547q0 308 108 435t372 127q173 0 274 -52l76 118l79 -54l-77 -119q128 -124 128 -455q0 -304 -108.5 -433t-371.5 -129q-173 0 -275 51l-75 -117l-79 54l76 118q-67 65 -97 176t-30 280zM280 547q0 -235 59 -329l471 725q-70 40 -200 40q-128 0 -197 -37 t-101 -130.5t-32 -268.5zM409 150q70 -39 201 -39q96 0 157 21t101 72.5t56 133.5t16 209q0 235 -61 329z" />
<glyph unicode="&#xf9;" horiz-adv-x="1225" d="M155 383v711h149v-684q0 -56 4 -94t15.5 -74.5t33 -58.5t55.5 -39.5t84 -25t118 -7.5q70 0 157.5 15t136.5 38q4 69 4 171v759h149v-830q0 -112 -5 -187q-211 -92 -491 -92q-78 0 -140 11t-104.5 29t-73.5 47.5t-48.5 60.5t-27.5 74.5t-13 83t-3 92.5zM340 1557h180 l180 -294h-121z" />
<glyph unicode="&#xfa;" horiz-adv-x="1226" d="M155 383v711h149v-684q0 -85 10 -135t42.5 -90.5t94.5 -57t164 -16.5q69 0 157 15t137 38q4 69 4 171v759h149v-830q0 -97 -6 -187q-211 -92 -491 -92q-108 0 -185 21t-120 54t-67.5 88t-31 107t-6.5 128zM523 1276l181 293h179l-239 -293h-121z" />
<glyph unicode="&#xfb;" horiz-adv-x="1226" d="M155 383v711h149v-684q0 -56 4 -94t15.5 -74.5t33 -58.5t55.5 -39.5t84 -25t118 -7.5q70 0 158 15t137 38q4 104 4 171v759h149v-830q0 -97 -6 -187q-211 -92 -491 -92q-108 0 -185 21t-120 54t-67.5 88t-31 107t-6.5 128zM353 1282l192 293h123l197 -293h-123l-134 203 l-135 -203h-120z" />
<glyph unicode="&#xfc;" horiz-adv-x="1226" d="M155 383v711h149v-684q0 -56 4 -94t15.5 -74.5t33 -58.5t55.5 -39.5t84 -25t118 -7.5q70 0 158 15t137 38q4 104 4 171v759h149v-830q0 -97 -6 -187q-211 -92 -491 -92q-108 0 -185 21t-120 54t-67.5 88t-31 107t-6.5 128zM350 1407q0 39 27.5 66.5t66.5 27.5t65.5 -27.5 t26.5 -66.5t-26.5 -66t-65.5 -27t-66.5 27t-27.5 66zM679 1407q0 39 27.5 66.5t66.5 27.5t66 -27.5t27 -66.5t-26.5 -66t-66.5 -27q-39 0 -66.5 27t-27.5 66z" />
<glyph unicode="&#xfd;" horiz-adv-x="1056" d="M56 1094h159l352 -822l275 822h150l-509 -1497h-151l166 480zM460 1251l180 294h180l-239 -294h-121z" />
<glyph unicode="&#xfe;" horiz-adv-x="1179" d="M157 -403v1835h149v-364q157 41 302 41q167 0 265.5 -53.5t146 -176t47.5 -332.5t-47.5 -332.5t-146 -176t-265.5 -53.5q-145 0 -302 41v-429h-149zM306 152q127 -43 254 -43q91 0 154 17t103 48t62 87t30 122t8 164t-8 164t-30 122t-62 87.5t-103 48.5t-154 17 q-127 0 -254 -43v-791z" />
<glyph unicode="&#xff;" horiz-adv-x="1056" d="M56 1094h159l352 -822l275 822h151l-509 -1497h-152l166 480zM287 1389q0 39 28 66.5t67 27.5t65.5 -27.5t26.5 -66.5t-26.5 -66.5t-65.5 -27.5t-67 27.5t-28 66.5zM616 1389q0 39 27.5 66.5t66.5 27.5q40 0 67 -27.5t27 -66.5t-27 -66.5t-67 -27.5q-39 0 -66.5 27.5 t-27.5 66.5z" />
<glyph unicode="&#x152;" horiz-adv-x="2024" d="M140 716q0 201 25.5 334t89.5 224.5t170.5 131.5t268.5 40q161 0 266.5 -42.5t166.5 -132.5q15 38 39.5 66t59 45.5t69 28.5t83.5 16t87 6.5t94 1.5q165 0 352 -8v-124h-358q-103 0 -160 -10t-92 -42.5t-45 -82t-10 -139.5v-236h635v-128h-635v-264q0 -90 10 -139 t45 -81.5t92 -42.5t160 -10h358v-125q-158 -7 -352 -7q-48 0 -81 1t-76.5 4.5t-73.5 10t-64.5 18.5t-58 29t-45 42.5t-34.5 58.5q-61 -90 -166 -132.5t-266 -42.5q-162 0 -268.5 40t-170.5 132t-89.5 225t-25.5 334zM300 716q0 -90 2 -144.5t10 -125.5t23.5 -113t44 -88 t70 -70t103 -40t141.5 -16t141 16t103 40t70.5 70t44 88t23.5 112.5t10 126t2 144.5q0 62 -1 102.5t-3.5 93.5t-9 88t-16 77t-25 69.5t-37 57t-50.5 47.5t-65.5 33.5t-83.5 22t-103 6.5q-80 0 -141.5 -16t-103 -40t-70 -70t-44 -87.5t-23.5 -112.5t-10 -126t-2 -145z" />
<glyph unicode="&#x153;" horiz-adv-x="2004" d="M130 547q0 308 108 435t372 127q158 0 255.5 -45.5t148.5 -144.5q51 99 148.5 144.5t256.5 45.5q109 0 191 -23t135 -64t85.5 -104t45.5 -135.5t13 -166.5q0 -54 -3 -104q-92 -16 -256 -31t-281 -20l-259 -11q7 -89 25.5 -148t58.5 -104.5t108 -66t170 -20.5 q155 0 386 31l14 -120q-243 -37 -459 -37q-273 0 -375 197q-51 -103 -149.5 -150t-258.5 -47q-264 0 -372 127t-108 435zM280 547q0 -132 16.5 -215t57 -133t100.5 -69t156 -19q128 0 198 40.5t101 133.5t31 262q0 249 -70.5 342.5t-259.5 93.5q-96 0 -156 -19t-100.5 -69 t-57 -133t-16.5 -215zM1086 563l289 14q191 8 362 30q3 33 3 77q0 147 -74.5 225t-246.5 78q-102 0 -168 -25.5t-102 -81.5t-49.5 -130t-13.5 -187z" />
<glyph unicode="&#x178;" horiz-adv-x="1158" d="M41 1432h172l366 -715l373 715h166l-462 -875v-557h-158v557zM333 1670q0 39 28 66.5t67 27.5t65.5 -27.5t26.5 -66.5t-26.5 -66t-65.5 -27t-67 27t-28 66zM662 1670q0 39 27.5 66.5t66.5 27.5q40 0 67 -27.5t27 -66.5t-27 -66t-67 -27q-39 0 -66.5 27t-27.5 66z" />
<glyph unicode="&#x2c6;" horiz-adv-x="674" d="M82 1171l191 293h124l196 -293h-122l-134 202l-135 -202h-120z" />
<glyph unicode="&#x2dc;" horiz-adv-x="721" d="M112 1211q9 97 51 149.5t95 52.5q39 0 69 -16t46 -35t35.5 -35t39.5 -16q52 0 68 98h93q-9 -97 -50.5 -150t-94.5 -53q-39 0 -69.5 16t-46 35.5t-35 35.5t-39.5 16q-52 0 -68 -98h-94z" />
<glyph unicode="&#x2000;" horiz-adv-x="977" />
<glyph unicode="&#x2001;" horiz-adv-x="1955" />
<glyph unicode="&#x2002;" horiz-adv-x="977" />
<glyph unicode="&#x2003;" horiz-adv-x="1955" />
<glyph unicode="&#x2004;" horiz-adv-x="651" />
<glyph unicode="&#x2005;" horiz-adv-x="488" />
<glyph unicode="&#x2006;" horiz-adv-x="325" />
<glyph unicode="&#x2007;" horiz-adv-x="325" />
<glyph unicode="&#x2008;" horiz-adv-x="244" />
<glyph unicode="&#x2009;" horiz-adv-x="391" />
<glyph unicode="&#x200a;" horiz-adv-x="108" />
<glyph unicode="&#x2010;" horiz-adv-x="818" d="M146 479v130h526v-130h-526z" />
<glyph unicode="&#x2011;" horiz-adv-x="818" d="M146 479v130h526v-130h-526z" />
<glyph unicode="&#x2012;" horiz-adv-x="818" d="M146 479v130h526v-130h-526z" />
<glyph unicode="&#x2013;" horiz-adv-x="1279" d="M146 484v121h988v-121h-988z" />
<glyph unicode="&#x2014;" horiz-adv-x="2234" d="M146 484v121h1942v-121h-1942z" />
<glyph unicode="&#x2018;" horiz-adv-x="444" d="M88 1029l176 488h122l-130 -488h-168z" />
<glyph unicode="&#x2019;" horiz-adv-x="444" d="M88 1029l131 488h167l-175 -488h-123z" />
<glyph unicode="&#x201a;" horiz-adv-x="439" d="M55 -255l129 488h167l-174 -488h-122z" />
<glyph unicode="&#x201c;" horiz-adv-x="739" d="M88 1029l175 488h122l-129 -488h-168zM385 1029l174 488h122l-129 -488h-167z" />
<glyph unicode="&#x201d;" horiz-adv-x="739" d="M88 1029l130 488h167l-174 -488h-123zM385 1029l129 488h167l-174 -488h-122z" />
<glyph unicode="&#x201e;" horiz-adv-x="735" d="M55 -255l129 488h167l-174 -488h-122zM351 -255l130 488h166l-174 -488h-122z" />
<glyph unicode="&#x2022;" horiz-adv-x="800" d="M120 688q0 116 81.5 198t197.5 82t198.5 -82t82.5 -198t-82.5 -198.5t-198.5 -82.5t-197.5 82.5t-81.5 198.5z" />
<glyph unicode="&#x2026;" horiz-adv-x="1761" d="M135 93q0 61 19.5 85.5t70.5 24.5t70.5 -24.5t19.5 -85.5t-19 -84.5t-71 -23.5t-71 23.5t-19 84.5zM791 93q0 61 19.5 85.5t70.5 24.5t70 -24.5t19 -85.5t-18.5 -84.5t-70.5 -23.5t-71 23.5t-19 84.5zM1446 93q0 61 19.5 85.5t70.5 24.5t70.5 -24.5t19.5 -85.5t-19 -84.5 t-71 -23.5t-71 23.5t-19 84.5z" />
<glyph unicode="&#x202f;" horiz-adv-x="391" />
<glyph unicode="&#x2039;" horiz-adv-x="615" d="M74 530l285 403h151l-259 -403l259 -403h-151z" />
<glyph unicode="&#x203a;" horiz-adv-x="614" d="M104 127l260 403l-259 403h151l285 -403l-285 -403h-152z" />
<glyph unicode="&#x205f;" horiz-adv-x="488" />
<glyph unicode="&#x20ac;" horiz-adv-x="1082" d="M90 528l22 103h130q-1 20 -1 63q0 54 1 80h-140l23 103h122q19 281 123.5 403.5t347.5 122.5q145 0 275 -32l-12 -122q-138 24 -225 24q-100 0 -167.5 -25t-106 -78.5t-56.5 -122t-24 -170.5h475l-22 -103h-456q-1 -26 -1 -80v-63h425l-23 -103h-398q6 -106 23.5 -177.5 t56 -127t106 -81.5t168.5 -26q85 0 225 23l12 -121q-134 -33 -275 -33q-126 0 -212.5 31t-141.5 100t-82 168t-36 244h-156z" />
<glyph unicode="&#x2122;" horiz-adv-x="1992" d="M91 1332v100h670v-100h-278v-758h-114v758h-278zM887 574v858h178l289 -676l284 676h176v-858h-115v721h-1l-309 -721h-77l-308 721h-1v-721h-116z" />
<glyph unicode="&#x25fc;" horiz-adv-x="1093" d="M0 0v1094h1094v-1094h-1094z" />
</font>
</defs>
</svg>
